<mxfile host="www.draw.io" modified="2020-03-09T19:52:53.307Z" agent="Mozilla/5.0 (Windows NT 6.1; Win64; x64) AppleWebKit/537.36 (KHTML, like Gecko) Chrome/80.0.3987.132 Safari/537.36" etag="Dz00O8Q9hPxa6MMif0dV" version="12.8.1" type="github" pages="3">
  <diagram name="UML" id="c4acf3e9-155e-7222-9cf6-157b1a14988f">
    <mxGraphModel dx="2379" dy="1474" grid="1" gridSize="10" guides="1" tooltips="1" connect="1" arrows="1" fold="1" page="1" pageScale="1" pageWidth="1169" pageHeight="827" background="#ffffff" math="0" shadow="0">
      <root>
        <mxCell id="0" />
        <mxCell id="1" parent="0" />
        <mxCell id="17acba5748e5396b-20" value="Category" style="swimlane;html=1;fontStyle=0;childLayout=stackLayout;horizontal=1;startSize=26;fillColor=none;horizontalStack=0;resizeParent=1;resizeLast=0;collapsible=1;marginBottom=0;swimlaneFillColor=#ffffff;rounded=0;shadow=0;comic=0;labelBackgroundColor=none;strokeWidth=1;fontFamily=Verdana;fontSize=10;align=center;" parent="1" vertex="1">
          <mxGeometry x="-1015" y="-500" width="160" height="60" as="geometry" />
        </mxCell>
        <mxCell id="DxIsQP9263FxMT1ZJkQR-26" value="- name: String" style="text;html=1;strokeColor=none;fillColor=none;align=left;verticalAlign=top;spacingLeft=4;spacingRight=4;whiteSpace=wrap;overflow=hidden;rotatable=0;points=[[0,0.5],[1,0.5]];portConstraint=eastwest;" parent="17acba5748e5396b-20" vertex="1">
          <mxGeometry y="26" width="160" height="30" as="geometry" />
        </mxCell>
        <mxCell id="17acba5748e5396b-30" value="Service" style="swimlane;html=1;fontStyle=0;childLayout=stackLayout;horizontal=1;startSize=26;fillColor=none;horizontalStack=0;resizeParent=1;resizeLast=0;collapsible=1;marginBottom=0;swimlaneFillColor=#ffffff;rounded=0;shadow=0;comic=0;labelBackgroundColor=none;strokeWidth=1;fontFamily=Verdana;fontSize=10;align=center;" parent="1" vertex="1">
          <mxGeometry x="-810" y="-500" width="160" height="290" as="geometry" />
        </mxCell>
        <mxCell id="17acba5748e5396b-31" value="- category: Category" style="text;html=1;strokeColor=none;fillColor=none;align=left;verticalAlign=top;spacingLeft=4;spacingRight=4;whiteSpace=wrap;overflow=hidden;rotatable=0;points=[[0,0.5],[1,0.5]];portConstraint=eastwest;" parent="17acba5748e5396b-30" vertex="1">
          <mxGeometry y="26" width="160" height="26" as="geometry" />
        </mxCell>
        <mxCell id="17acba5748e5396b-32" value="- location: Location" style="text;html=1;strokeColor=none;fillColor=none;align=left;verticalAlign=top;spacingLeft=4;spacingRight=4;whiteSpace=wrap;overflow=hidden;rotatable=0;points=[[0,0.5],[1,0.5]];portConstraint=eastwest;" parent="17acba5748e5396b-30" vertex="1">
          <mxGeometry y="52" width="160" height="26" as="geometry" />
        </mxCell>
        <mxCell id="17acba5748e5396b-33" value="- price: Price" style="text;html=1;strokeColor=none;fillColor=none;align=left;verticalAlign=top;spacingLeft=4;spacingRight=4;whiteSpace=wrap;overflow=hidden;rotatable=0;points=[[0,0.5],[1,0.5]];portConstraint=eastwest;" parent="17acba5748e5396b-30" vertex="1">
          <mxGeometry y="78" width="160" height="32" as="geometry" />
        </mxCell>
        <mxCell id="zWuEhCJksEVTQqrsZCxa-1" value="- startDate: Date" style="text;html=1;strokeColor=none;fillColor=none;align=left;verticalAlign=top;spacingLeft=4;spacingRight=4;whiteSpace=wrap;overflow=hidden;rotatable=0;points=[[0,0.5],[1,0.5]];portConstraint=eastwest;" parent="17acba5748e5396b-30" vertex="1">
          <mxGeometry y="110" width="160" height="26" as="geometry" />
        </mxCell>
        <mxCell id="zWuEhCJksEVTQqrsZCxa-2" value="- endDate: Date" style="text;html=1;strokeColor=none;fillColor=none;align=left;verticalAlign=top;spacingLeft=4;spacingRight=4;whiteSpace=wrap;overflow=hidden;rotatable=0;points=[[0,0.5],[1,0.5]];portConstraint=eastwest;" parent="17acba5748e5396b-30" vertex="1">
          <mxGeometry y="136" width="160" height="24" as="geometry" />
        </mxCell>
        <mxCell id="zWuEhCJksEVTQqrsZCxa-3" value="- isOffer: Boolean" style="text;html=1;strokeColor=none;fillColor=none;align=left;verticalAlign=top;spacingLeft=4;spacingRight=4;whiteSpace=wrap;overflow=hidden;rotatable=0;points=[[0,0.5],[1,0.5]];portConstraint=eastwest;" parent="17acba5748e5396b-30" vertex="1">
          <mxGeometry y="160" width="160" height="30" as="geometry" />
        </mxCell>
        <mxCell id="zWuEhCJksEVTQqrsZCxa-5" value="- subject: String" style="text;html=1;strokeColor=none;fillColor=none;align=left;verticalAlign=top;spacingLeft=4;spacingRight=4;whiteSpace=wrap;overflow=hidden;rotatable=0;points=[[0,0.5],[1,0.5]];portConstraint=eastwest;" parent="17acba5748e5396b-30" vertex="1">
          <mxGeometry y="190" width="160" height="30" as="geometry" />
        </mxCell>
        <mxCell id="zWuEhCJksEVTQqrsZCxa-6" value="- serviceDescription: String" style="text;html=1;strokeColor=none;fillColor=none;align=left;verticalAlign=top;spacingLeft=4;spacingRight=4;whiteSpace=wrap;overflow=hidden;rotatable=0;points=[[0,0.5],[1,0.5]];portConstraint=eastwest;" parent="17acba5748e5396b-30" vertex="1">
          <mxGeometry y="220" width="160" height="30" as="geometry" />
        </mxCell>
        <mxCell id="zWuEhCJksEVTQqrsZCxa-8" value="- isActive: Boolean" style="text;html=1;strokeColor=none;fillColor=none;align=left;verticalAlign=top;spacingLeft=4;spacingRight=4;whiteSpace=wrap;overflow=hidden;rotatable=0;points=[[0,0.5],[1,0.5]];portConstraint=eastwest;" parent="17acba5748e5396b-30" vertex="1">
          <mxGeometry y="250" width="160" height="30" as="geometry" />
        </mxCell>
        <mxCell id="DxIsQP9263FxMT1ZJkQR-27" value="IsDeletedFlag" style="swimlane;html=1;fontStyle=0;childLayout=stackLayout;horizontal=1;startSize=26;fillColor=none;horizontalStack=0;resizeParent=1;resizeLast=0;collapsible=1;marginBottom=0;swimlaneFillColor=#ffffff;rounded=0;shadow=0;comic=0;labelBackgroundColor=none;strokeWidth=1;fontFamily=Verdana;fontSize=10;align=center;" parent="1" vertex="1">
          <mxGeometry x="-1005" y="-690" width="160" height="110" as="geometry" />
        </mxCell>
        <mxCell id="DxIsQP9263FxMT1ZJkQR-28" value="- isDeleted: Boolean" style="text;html=1;strokeColor=none;fillColor=none;align=left;verticalAlign=top;spacingLeft=4;spacingRight=4;whiteSpace=wrap;overflow=hidden;rotatable=0;points=[[0,0.5],[1,0.5]];portConstraint=eastwest;" parent="DxIsQP9263FxMT1ZJkQR-27" vertex="1">
          <mxGeometry y="26" width="160" height="26" as="geometry" />
        </mxCell>
        <mxCell id="DxIsQP9263FxMT1ZJkQR-29" value="- deletedDate: Date" style="text;html=1;strokeColor=none;fillColor=none;align=left;verticalAlign=top;spacingLeft=4;spacingRight=4;whiteSpace=wrap;overflow=hidden;rotatable=0;points=[[0,0.5],[1,0.5]];portConstraint=eastwest;" parent="DxIsQP9263FxMT1ZJkQR-27" vertex="1">
          <mxGeometry y="52" width="160" height="26" as="geometry" />
        </mxCell>
        <mxCell id="ztwFjhEFwHQVpPUq619F-6" value="PriceRate" style="swimlane;html=1;fontStyle=0;childLayout=stackLayout;horizontal=1;startSize=26;fillColor=none;horizontalStack=0;resizeParent=1;resizeLast=0;collapsible=1;marginBottom=0;swimlaneFillColor=#ffffff;rounded=0;shadow=0;comic=0;labelBackgroundColor=none;strokeWidth=1;fontFamily=Verdana;fontSize=10;align=center;" parent="1" vertex="1">
          <mxGeometry x="-410" y="-423" width="160" height="60" as="geometry" />
        </mxCell>
        <mxCell id="ztwFjhEFwHQVpPUq619F-8" value="- type: String" style="text;html=1;strokeColor=none;fillColor=none;align=left;verticalAlign=top;spacingLeft=4;spacingRight=4;whiteSpace=wrap;overflow=hidden;rotatable=0;points=[[0,0.5],[1,0.5]];portConstraint=eastwest;" parent="ztwFjhEFwHQVpPUq619F-6" vertex="1">
          <mxGeometry y="26" width="160" height="34" as="geometry" />
        </mxCell>
        <mxCell id="ztwFjhEFwHQVpPUq619F-17" value="" style="endArrow=diamondThin;endFill=1;endSize=24;html=1;entryX=0.998;entryY=0.077;entryDx=0;entryDy=0;entryPerimeter=0;exitX=0;exitY=0.25;exitDx=0;exitDy=0;" parent="1" source="ztwFjhEFwHQVpPUq619F-6" target="x3K7wTu7mBivTrbuIcmW-21" edge="1">
          <mxGeometry width="160" relative="1" as="geometry">
            <mxPoint x="-390" y="-342" as="sourcePoint" />
            <mxPoint x="-448.39999999999964" y="-395.44000000000005" as="targetPoint" />
            <Array as="points">
              <mxPoint x="-430" y="-408" />
              <mxPoint x="-430" y="-342" />
            </Array>
          </mxGeometry>
        </mxCell>
        <mxCell id="ztwFjhEFwHQVpPUq619F-34" value="&lt;i&gt;CommonProperties&lt;/i&gt;" style="swimlane;html=1;fontStyle=0;childLayout=stackLayout;horizontal=1;startSize=26;fillColor=none;horizontalStack=0;resizeParent=1;resizeLast=0;collapsible=1;marginBottom=0;swimlaneFillColor=#ffffff;rounded=0;shadow=0;comic=0;labelBackgroundColor=none;strokeWidth=1;fontFamily=Verdana;fontSize=10;align=center;" parent="1" vertex="1">
          <mxGeometry x="-810" y="-690" width="160" height="110" as="geometry" />
        </mxCell>
        <mxCell id="ztwFjhEFwHQVpPUq619F-35" value="- id: Long" style="text;html=1;strokeColor=none;fillColor=none;align=left;verticalAlign=top;spacingLeft=4;spacingRight=4;whiteSpace=wrap;overflow=hidden;rotatable=0;points=[[0,0.5],[1,0.5]];portConstraint=eastwest;" parent="ztwFjhEFwHQVpPUq619F-34" vertex="1">
          <mxGeometry y="26" width="160" height="26" as="geometry" />
        </mxCell>
        <mxCell id="ztwFjhEFwHQVpPUq619F-36" value="- createdDate: Date" style="text;html=1;strokeColor=none;fillColor=none;align=left;verticalAlign=top;spacingLeft=4;spacingRight=4;whiteSpace=wrap;overflow=hidden;rotatable=0;points=[[0,0.5],[1,0.5]];portConstraint=eastwest;" parent="ztwFjhEFwHQVpPUq619F-34" vertex="1">
          <mxGeometry y="52" width="160" height="26" as="geometry" />
        </mxCell>
        <mxCell id="ztwFjhEFwHQVpPUq619F-38" value="- isDeleted: IsDeleted" style="text;html=1;strokeColor=none;fillColor=none;align=left;verticalAlign=top;spacingLeft=4;spacingRight=4;whiteSpace=wrap;overflow=hidden;rotatable=0;points=[[0,0.5],[1,0.5]];portConstraint=eastwest;" parent="ztwFjhEFwHQVpPUq619F-34" vertex="1">
          <mxGeometry y="78" width="160" height="26" as="geometry" />
        </mxCell>
        <mxCell id="ztwFjhEFwHQVpPUq619F-37" value="" style="endArrow=diamondThin;endFill=1;endSize=24;html=1;exitX=1;exitY=0.5;exitDx=0;exitDy=0;entryX=0;entryY=0.5;entryDx=0;entryDy=0;" parent="1" source="DxIsQP9263FxMT1ZJkQR-29" target="ztwFjhEFwHQVpPUq619F-36" edge="1">
          <mxGeometry width="160" relative="1" as="geometry">
            <mxPoint x="-1150" y="257" as="sourcePoint" />
            <mxPoint x="-933.56" y="331.8119999999999" as="targetPoint" />
          </mxGeometry>
        </mxCell>
        <mxCell id="ztwFjhEFwHQVpPUq619F-42" value="Extends" style="endArrow=block;endSize=16;endFill=0;html=1;entryX=0.5;entryY=1;entryDx=0;entryDy=0;exitX=0.5;exitY=0;exitDx=0;exitDy=0;" parent="1" target="ztwFjhEFwHQVpPUq619F-34" edge="1">
          <mxGeometry x="-0.1429" y="10" width="160" relative="1" as="geometry">
            <mxPoint x="-530" y="-500" as="sourcePoint" />
            <mxPoint x="-910" y="220" as="targetPoint" />
            <Array as="points">
              <mxPoint x="-530" y="-530" />
              <mxPoint x="-730" y="-530" />
            </Array>
            <mxPoint as="offset" />
          </mxGeometry>
        </mxCell>
        <mxCell id="ztwFjhEFwHQVpPUq619F-43" value="Extends" style="endArrow=block;endSize=16;endFill=0;html=1;exitX=0.5;exitY=0;exitDx=0;exitDy=0;" parent="1" source="17acba5748e5396b-20" edge="1">
          <mxGeometry x="-0.5439" y="-10" width="160" relative="1" as="geometry">
            <mxPoint x="-590" y="509" as="sourcePoint" />
            <mxPoint x="-730" y="-580" as="targetPoint" />
            <Array as="points">
              <mxPoint x="-935" y="-530" />
              <mxPoint x="-730" y="-530" />
            </Array>
            <mxPoint as="offset" />
          </mxGeometry>
        </mxCell>
        <mxCell id="ztwFjhEFwHQVpPUq619F-45" value="Extends" style="endArrow=block;endSize=16;endFill=0;html=1;exitX=1;exitY=0.25;exitDx=0;exitDy=0;" parent="1" source="ztwFjhEFwHQVpPUq619F-6" edge="1">
          <mxGeometry x="-0.893" y="-21" width="160" relative="1" as="geometry">
            <mxPoint x="-220" y="-410" as="sourcePoint" />
            <mxPoint x="-730" y="-580" as="targetPoint" />
            <Array as="points">
              <mxPoint x="-220" y="-408" />
              <mxPoint x="-220" y="-530" />
              <mxPoint x="-730" y="-530" />
            </Array>
            <mxPoint as="offset" />
          </mxGeometry>
        </mxCell>
        <mxCell id="_KMC38DOttRhCcEWU3Ac-1" value="User" style="swimlane;html=1;fontStyle=0;childLayout=stackLayout;horizontal=1;startSize=26;fillColor=none;horizontalStack=0;resizeParent=1;resizeLast=0;collapsible=1;marginBottom=0;swimlaneFillColor=#ffffff;rounded=0;shadow=0;comic=0;labelBackgroundColor=none;strokeWidth=1;fontFamily=Verdana;fontSize=10;align=center;" parent="1" vertex="1">
          <mxGeometry x="-1015" y="-430" width="160" height="170" as="geometry" />
        </mxCell>
        <mxCell id="_KMC38DOttRhCcEWU3Ac-2" value="- firstName: String" style="text;html=1;strokeColor=none;fillColor=none;align=left;verticalAlign=top;spacingLeft=4;spacingRight=4;whiteSpace=wrap;overflow=hidden;rotatable=0;points=[[0,0.5],[1,0.5]];portConstraint=eastwest;" parent="_KMC38DOttRhCcEWU3Ac-1" vertex="1">
          <mxGeometry y="26" width="160" height="26" as="geometry" />
        </mxCell>
        <mxCell id="_KMC38DOttRhCcEWU3Ac-3" value="- lastName: String" style="text;html=1;strokeColor=none;fillColor=none;align=left;verticalAlign=top;spacingLeft=4;spacingRight=4;whiteSpace=wrap;overflow=hidden;rotatable=0;points=[[0,0.5],[1,0.5]];portConstraint=eastwest;" parent="_KMC38DOttRhCcEWU3Ac-1" vertex="1">
          <mxGeometry y="52" width="160" height="26" as="geometry" />
        </mxCell>
        <mxCell id="_KMC38DOttRhCcEWU3Ac-4" value="&amp;nbsp;- services: List&amp;lt;Service&amp;gt;" style="text;html=1;" parent="_KMC38DOttRhCcEWU3Ac-1" vertex="1">
          <mxGeometry y="78" width="160" height="30" as="geometry" />
        </mxCell>
        <mxCell id="_KMC38DOttRhCcEWU3Ac-7" value="&amp;nbsp;- address: Location" style="text;html=1;" parent="_KMC38DOttRhCcEWU3Ac-1" vertex="1">
          <mxGeometry y="108" width="160" height="30" as="geometry" />
        </mxCell>
        <mxCell id="_KMC38DOttRhCcEWU3Ac-8" value="&amp;nbsp;- isMale: Boolean" style="text;html=1;" parent="_KMC38DOttRhCcEWU3Ac-1" vertex="1">
          <mxGeometry y="138" width="160" height="30" as="geometry" />
        </mxCell>
        <mxCell id="_KMC38DOttRhCcEWU3Ac-5" value="" style="endArrow=diamondThin;endFill=0;endSize=24;html=1;entryX=1.005;entryY=0.066;entryDx=0;entryDy=0;entryPerimeter=0;" parent="1" target="_KMC38DOttRhCcEWU3Ac-1" edge="1">
          <mxGeometry width="160" relative="1" as="geometry">
            <mxPoint x="-810" y="-419" as="sourcePoint" />
            <mxPoint x="-1150" y="-530" as="targetPoint" />
            <Array as="points" />
          </mxGeometry>
        </mxCell>
        <mxCell id="ztwFjhEFwHQVpPUq619F-12" value="Currency" style="swimlane;html=1;fontStyle=0;childLayout=stackLayout;horizontal=1;startSize=26;fillColor=none;horizontalStack=0;resizeParent=1;resizeLast=0;collapsible=1;marginBottom=0;swimlaneFillColor=#ffffff;rounded=0;shadow=0;comic=0;labelBackgroundColor=none;strokeWidth=1;fontFamily=Verdana;fontSize=10;align=center;" parent="1" vertex="1">
          <mxGeometry x="-410" y="-350" width="160" height="56" as="geometry" />
        </mxCell>
        <mxCell id="ztwFjhEFwHQVpPUq619F-14" value="- currency:&amp;nbsp;String" style="text;html=1;strokeColor=none;fillColor=none;align=left;verticalAlign=top;spacingLeft=4;spacingRight=4;whiteSpace=wrap;overflow=hidden;rotatable=0;points=[[0,0.5],[1,0.5]];portConstraint=eastwest;" parent="ztwFjhEFwHQVpPUq619F-12" vertex="1">
          <mxGeometry y="26" width="160" height="30" as="geometry" />
        </mxCell>
        <mxCell id="x3K7wTu7mBivTrbuIcmW-5" value="" style="endArrow=diamondThin;endFill=1;endSize=24;html=1;entryX=0.994;entryY=0.691;entryDx=0;entryDy=0;entryPerimeter=0;" parent="1" edge="1">
          <mxGeometry width="160" relative="1" as="geometry">
            <mxPoint x="-410" y="-329.83" as="sourcePoint" />
            <mxPoint x="-450.96000000000004" y="-329.99999999999983" as="targetPoint" />
            <Array as="points" />
          </mxGeometry>
        </mxCell>
        <mxCell id="ztwFjhEFwHQVpPUq619F-1" value="Area" style="swimlane;html=1;fontStyle=0;childLayout=stackLayout;horizontal=1;startSize=26;fillColor=none;horizontalStack=0;resizeParent=1;resizeLast=0;collapsible=1;marginBottom=0;swimlaneFillColor=#ffffff;rounded=0;shadow=0;comic=0;labelBackgroundColor=none;strokeWidth=1;fontFamily=Verdana;fontSize=10;align=center;" parent="1" vertex="1">
          <mxGeometry x="-410" y="-500" width="160" height="60" as="geometry" />
        </mxCell>
        <mxCell id="ztwFjhEFwHQVpPUq619F-3" value="- name: String" style="text;html=1;strokeColor=none;fillColor=none;align=left;verticalAlign=top;spacingLeft=4;spacingRight=4;whiteSpace=wrap;overflow=hidden;rotatable=0;points=[[0,0.5],[1,0.5]];portConstraint=eastwest;" parent="ztwFjhEFwHQVpPUq619F-1" vertex="1">
          <mxGeometry y="26" width="160" height="30" as="geometry" />
        </mxCell>
        <mxCell id="x3K7wTu7mBivTrbuIcmW-6" value="Extends" style="endArrow=block;endSize=16;endFill=0;html=1;exitX=-0.008;exitY=0.089;exitDx=0;exitDy=0;exitPerimeter=0;" parent="1" source="_KMC38DOttRhCcEWU3Ac-1" edge="1">
          <mxGeometry x="-0.3027" y="-10" width="160" relative="1" as="geometry">
            <mxPoint x="-1070" y="-400" as="sourcePoint" />
            <mxPoint x="-730" y="-580" as="targetPoint" />
            <Array as="points">
              <mxPoint x="-1040" y="-415" />
              <mxPoint x="-1040" y="-530" />
              <mxPoint x="-850" y="-530" />
              <mxPoint x="-730" y="-530" />
            </Array>
            <mxPoint as="offset" />
          </mxGeometry>
        </mxCell>
        <mxCell id="x3K7wTu7mBivTrbuIcmW-7" value="" style="endArrow=diamondThin;endFill=1;endSize=24;html=1;" parent="1" edge="1">
          <mxGeometry width="160" relative="1" as="geometry">
            <mxPoint x="-610" y="-487" as="sourcePoint" />
            <mxPoint x="-650" y="-488" as="targetPoint" />
          </mxGeometry>
        </mxCell>
        <mxCell id="x3K7wTu7mBivTrbuIcmW-8" value="" style="endArrow=diamondThin;endFill=1;endSize=24;html=1;entryX=1;entryY=0.5;entryDx=0;entryDy=0;" parent="1" edge="1">
          <mxGeometry width="160" relative="1" as="geometry">
            <mxPoint x="-610" y="-338" as="sourcePoint" />
            <mxPoint x="-650" y="-338" as="targetPoint" />
          </mxGeometry>
        </mxCell>
        <mxCell id="x3K7wTu7mBivTrbuIcmW-9" value="Extends" style="endArrow=block;endSize=16;endFill=0;html=1;exitX=0.5;exitY=0;exitDx=0;exitDy=0;" parent="1" source="ztwFjhEFwHQVpPUq619F-1" edge="1">
          <mxGeometry x="-0.6667" y="10" width="160" relative="1" as="geometry">
            <mxPoint x="-220" y="-400" as="sourcePoint" />
            <mxPoint x="-730" y="-580" as="targetPoint" />
            <Array as="points">
              <mxPoint x="-330" y="-530" />
              <mxPoint x="-730" y="-530" />
            </Array>
            <mxPoint as="offset" />
          </mxGeometry>
        </mxCell>
        <mxCell id="x3K7wTu7mBivTrbuIcmW-11" value="" style="endArrow=diamondThin;endFill=1;endSize=24;html=1;entryX=1.019;entryY=0.043;entryDx=0;entryDy=0;entryPerimeter=0;" parent="1" edge="1">
          <mxGeometry width="160" relative="1" as="geometry">
            <mxPoint x="-410" y="-490" as="sourcePoint" />
            <mxPoint x="-449.9999999999998" y="-489.71299999999997" as="targetPoint" />
          </mxGeometry>
        </mxCell>
        <mxCell id="x3K7wTu7mBivTrbuIcmW-12" value="Extends" style="endArrow=block;endSize=16;endFill=0;html=1;exitX=1;exitY=0.25;exitDx=0;exitDy=0;" parent="1" source="ztwFjhEFwHQVpPUq619F-12" edge="1">
          <mxGeometry x="-0.893" y="-21" width="160" relative="1" as="geometry">
            <mxPoint x="-250" y="-415" as="sourcePoint" />
            <mxPoint x="-730" y="-580" as="targetPoint" />
            <Array as="points">
              <mxPoint x="-220" y="-336" />
              <mxPoint x="-220" y="-530" />
              <mxPoint x="-730" y="-530" />
            </Array>
            <mxPoint as="offset" />
          </mxGeometry>
        </mxCell>
        <mxCell id="x3K7wTu7mBivTrbuIcmW-13" value="" style="endArrow=diamondThin;endFill=1;endSize=24;html=1;" parent="1" edge="1">
          <mxGeometry width="160" relative="1" as="geometry">
            <mxPoint x="-855" y="-483" as="sourcePoint" />
            <mxPoint x="-810" y="-483" as="targetPoint" />
          </mxGeometry>
        </mxCell>
        <mxCell id="x3K7wTu7mBivTrbuIcmW-15" value="Location" style="swimlane;html=1;fontStyle=0;childLayout=stackLayout;horizontal=1;startSize=26;fillColor=none;horizontalStack=0;resizeParent=1;resizeLast=0;collapsible=1;marginBottom=0;swimlaneFillColor=#ffffff;rounded=0;shadow=0;comic=0;labelBackgroundColor=none;strokeWidth=1;fontFamily=Verdana;fontSize=10;align=center;" parent="1" vertex="1">
          <mxGeometry x="-610" y="-500" width="160" height="140" as="geometry" />
        </mxCell>
        <mxCell id="x3K7wTu7mBivTrbuIcmW-16" value="- country: String" style="text;html=1;strokeColor=none;fillColor=none;align=left;verticalAlign=top;spacingLeft=4;spacingRight=4;whiteSpace=wrap;overflow=hidden;rotatable=0;points=[[0,0.5],[1,0.5]];portConstraint=eastwest;" parent="x3K7wTu7mBivTrbuIcmW-15" vertex="1">
          <mxGeometry y="26" width="160" height="26" as="geometry" />
        </mxCell>
        <mxCell id="x3K7wTu7mBivTrbuIcmW-17" value="- city: String" style="text;html=1;strokeColor=none;fillColor=none;align=left;verticalAlign=top;spacingLeft=4;spacingRight=4;whiteSpace=wrap;overflow=hidden;rotatable=0;points=[[0,0.5],[1,0.5]];portConstraint=eastwest;" parent="x3K7wTu7mBivTrbuIcmW-15" vertex="1">
          <mxGeometry y="52" width="160" height="26" as="geometry" />
        </mxCell>
        <mxCell id="x3K7wTu7mBivTrbuIcmW-18" value="&amp;nbsp;- area: Area" style="text;html=1;" parent="x3K7wTu7mBivTrbuIcmW-15" vertex="1">
          <mxGeometry y="78" width="160" height="30" as="geometry" />
        </mxCell>
        <mxCell id="x3K7wTu7mBivTrbuIcmW-19" value="&amp;nbsp;- street: String" style="text;html=1;" parent="x3K7wTu7mBivTrbuIcmW-15" vertex="1">
          <mxGeometry y="108" width="160" height="30" as="geometry" />
        </mxCell>
        <mxCell id="x3K7wTu7mBivTrbuIcmW-21" value="Price" style="swimlane;html=1;fontStyle=0;childLayout=stackLayout;horizontal=1;startSize=26;fillColor=none;horizontalStack=0;resizeParent=1;resizeLast=0;collapsible=1;marginBottom=0;swimlaneFillColor=#ffffff;rounded=0;shadow=0;comic=0;labelBackgroundColor=none;strokeWidth=1;fontFamily=Verdana;fontSize=10;align=center;" parent="1" vertex="1">
          <mxGeometry x="-610" y="-350" width="160" height="110" as="geometry" />
        </mxCell>
        <mxCell id="x3K7wTu7mBivTrbuIcmW-22" value="- price: Double" style="text;html=1;strokeColor=none;fillColor=none;align=left;verticalAlign=top;spacingLeft=4;spacingRight=4;whiteSpace=wrap;overflow=hidden;rotatable=0;points=[[0,0.5],[1,0.5]];portConstraint=eastwest;" parent="x3K7wTu7mBivTrbuIcmW-21" vertex="1">
          <mxGeometry y="26" width="160" height="26" as="geometry" />
        </mxCell>
        <mxCell id="x3K7wTu7mBivTrbuIcmW-23" value="- currency: Currency" style="text;html=1;strokeColor=none;fillColor=none;align=left;verticalAlign=top;spacingLeft=4;spacingRight=4;whiteSpace=wrap;overflow=hidden;rotatable=0;points=[[0,0.5],[1,0.5]];portConstraint=eastwest;" parent="x3K7wTu7mBivTrbuIcmW-21" vertex="1">
          <mxGeometry y="52" width="160" height="26" as="geometry" />
        </mxCell>
        <mxCell id="x3K7wTu7mBivTrbuIcmW-24" value="&amp;nbsp;- priceRate: PriceRate" style="text;html=1;" parent="x3K7wTu7mBivTrbuIcmW-21" vertex="1">
          <mxGeometry y="78" width="160" height="30" as="geometry" />
        </mxCell>
      </root>
    </mxGraphModel>
  </diagram>
  <diagram id="CIlDn7zjZIqfcTAXzdiw" name="ERD">
    <mxGraphModel dx="1389" dy="2579" grid="1" gridSize="10" guides="1" tooltips="1" connect="1" arrows="1" fold="1" page="1" pageScale="1" pageWidth="827" pageHeight="1169" background="none" math="0" shadow="0">
      <root>
        <mxCell id="9PYEujNsPARz0ICmjyJu-0" />
        <mxCell id="9PYEujNsPARz0ICmjyJu-1" parent="9PYEujNsPARz0ICmjyJu-0" />
        <mxCell id="Xc7yIvZ5KaULBB_wwvMh-2" style="edgeStyle=orthogonalEdgeStyle;rounded=0;orthogonalLoop=1;jettySize=auto;html=1;entryX=1.005;entryY=0.667;entryDx=0;entryDy=0;entryPerimeter=0;" edge="1" parent="9PYEujNsPARz0ICmjyJu-1" source="9PYEujNsPARz0ICmjyJu-3" target="9PYEujNsPARz0ICmjyJu-11">
          <mxGeometry relative="1" as="geometry">
            <mxPoint x="40" y="-880" as="targetPoint" />
          </mxGeometry>
        </mxCell>
        <mxCell id="9PYEujNsPARz0ICmjyJu-3" value="Category" style="swimlane;html=1;fontStyle=0;childLayout=stackLayout;horizontal=1;startSize=26;fillColor=#FFD966;horizontalStack=0;resizeParent=1;resizeLast=0;collapsible=1;marginBottom=0;swimlaneFillColor=#ffffff;rounded=0;shadow=0;comic=0;labelBackgroundColor=none;strokeWidth=1;fontFamily=Verdana;fontSize=10;align=center;" parent="9PYEujNsPARz0ICmjyJu-1" vertex="1">
          <mxGeometry x="190" y="-980" width="190" height="140" as="geometry" />
        </mxCell>
        <mxCell id="9PYEujNsPARz0ICmjyJu-4" value="PK&amp;nbsp; &amp;nbsp; &amp;nbsp; &amp;nbsp; &amp;nbsp; &amp;nbsp; &amp;nbsp; &amp;nbsp; &amp;nbsp; &amp;nbsp; &amp;nbsp;id :&amp;nbsp;&lt;span style=&quot;font-family: &amp;#34;arial&amp;#34; , &amp;#34;helvetica&amp;#34; , sans-serif ; background-color: rgb(255 , 255 , 255)&quot;&gt;&lt;font style=&quot;font-size: 12px&quot;&gt;bigint&lt;/font&gt;&lt;/span&gt;(?)&lt;span style=&quot;font-family: &amp;#34;arial&amp;#34; , &amp;#34;helvetica&amp;#34; , sans-serif ; font-size: 13.3333px ; background-color: rgb(255 , 255 , 255)&quot;&gt;&lt;br&gt;&amp;nbsp;&lt;/span&gt;" style="text;html=1;strokeColor=none;fillColor=none;align=left;verticalAlign=top;spacingLeft=4;spacingRight=4;whiteSpace=wrap;overflow=hidden;rotatable=0;points=[[0,0.5],[1,0.5]];portConstraint=eastwest;" parent="9PYEujNsPARz0ICmjyJu-3" vertex="1">
          <mxGeometry y="26" width="190" height="26" as="geometry" />
        </mxCell>
        <mxCell id="9PYEujNsPARz0ICmjyJu-5" value="&amp;nbsp; &amp;nbsp; &amp;nbsp; &amp;nbsp; &amp;nbsp; &amp;nbsp; &amp;nbsp; &amp;nbsp; &amp;nbsp; &amp;nbsp; name : varchar(?)" style="text;html=1;strokeColor=none;fillColor=none;align=left;verticalAlign=top;spacingLeft=4;spacingRight=4;whiteSpace=wrap;overflow=hidden;rotatable=0;points=[[0,0.5],[1,0.5]];portConstraint=eastwest;" parent="9PYEujNsPARz0ICmjyJu-3" vertex="1">
          <mxGeometry y="52" width="190" height="30" as="geometry" />
        </mxCell>
        <mxCell id="9PYEujNsPARz0ICmjyJu-6" value="&amp;nbsp; &amp;nbsp; &amp;nbsp; &amp;nbsp; &amp;nbsp; createdDate : date" style="text;html=1;strokeColor=none;fillColor=none;align=left;verticalAlign=top;spacingLeft=4;spacingRight=4;whiteSpace=wrap;overflow=hidden;rotatable=0;points=[[0,0.5],[1,0.5]];portConstraint=eastwest;" parent="9PYEujNsPARz0ICmjyJu-3" vertex="1">
          <mxGeometry y="82" width="190" height="26" as="geometry" />
        </mxCell>
        <mxCell id="9PYEujNsPARz0ICmjyJu-7" value="&amp;nbsp; &amp;nbsp; &amp;nbsp; &amp;nbsp; &amp;nbsp; &amp;nbsp; &amp;nbsp; &amp;nbsp;isDeleted :&lt;font style=&quot;font-size: 12px&quot;&gt;&amp;nbsp;&lt;span style=&quot;font-family: &amp;#34;open sans&amp;#34; , &amp;#34;arial&amp;#34; , sans-serif&quot;&gt;boolean&lt;/span&gt;&lt;/font&gt;" style="text;html=1;strokeColor=none;fillColor=none;align=left;verticalAlign=top;spacingLeft=4;spacingRight=4;whiteSpace=wrap;overflow=hidden;rotatable=0;points=[[0,0.5],[1,0.5]];portConstraint=eastwest;" parent="9PYEujNsPARz0ICmjyJu-3" vertex="1">
          <mxGeometry y="108" width="190" height="26" as="geometry" />
        </mxCell>
        <mxCell id="9PYEujNsPARz0ICmjyJu-8" style="edgeStyle=orthogonalEdgeStyle;rounded=0;orthogonalLoop=1;jettySize=auto;html=1;entryX=1;entryY=0.5;entryDx=0;entryDy=0;" parent="9PYEujNsPARz0ICmjyJu-1" source="9PYEujNsPARz0ICmjyJu-9" target="9PYEujNsPARz0ICmjyJu-33" edge="1">
          <mxGeometry relative="1" as="geometry">
            <Array as="points">
              <mxPoint x="-260" y="-911" />
              <mxPoint x="-260" y="-911" />
            </Array>
          </mxGeometry>
        </mxCell>
        <mxCell id="9PYEujNsPARz0ICmjyJu-9" value="Service" style="swimlane;html=1;fontStyle=0;childLayout=stackLayout;horizontal=1;startSize=26;fillColor=#FFD966;horizontalStack=0;resizeParent=1;resizeLast=0;collapsible=1;marginBottom=0;swimlaneFillColor=#ffffff;rounded=0;shadow=0;comic=0;labelBackgroundColor=none;strokeWidth=1;fontFamily=Verdana;fontSize=10;align=center;" parent="9PYEujNsPARz0ICmjyJu-1" vertex="1">
          <mxGeometry x="-210" y="-950" width="240" height="369" as="geometry" />
        </mxCell>
        <mxCell id="9PYEujNsPARz0ICmjyJu-10" value="PK&amp;nbsp; Id :&amp;nbsp;&lt;span style=&quot;font-family: &amp;#34;arial&amp;#34; , &amp;#34;helvetica&amp;#34; , sans-serif ; font-size: 13.3333px ; background-color: rgb(255 , 255 , 255)&quot;&gt;BIGINT&lt;/span&gt;(?)&lt;span style=&quot;font-family: &amp;#34;arial&amp;#34; , &amp;#34;helvetica&amp;#34; , sans-serif ; font-size: 13.3333px ; background-color: rgb(255 , 255 , 255)&quot;&gt;&lt;br&gt;&amp;nbsp;&lt;/span&gt;" style="text;html=1;strokeColor=none;fillColor=none;align=left;verticalAlign=top;spacingLeft=4;spacingRight=4;whiteSpace=wrap;overflow=hidden;rotatable=0;points=[[0,0.5],[1,0.5]];portConstraint=eastwest;" parent="9PYEujNsPARz0ICmjyJu-9" vertex="1">
          <mxGeometry y="26" width="240" height="27" as="geometry" />
        </mxCell>
        <mxCell id="9PYEujNsPARz0ICmjyJu-11" value="FK&amp;nbsp; categoryId :&amp;nbsp;&lt;span style=&quot;font-family: &amp;#34;arial&amp;#34; , &amp;#34;helvetica&amp;#34; , sans-serif ; font-size: 13.3333px ; background-color: rgb(255 , 255 , 255)&quot;&gt;BIGINT&lt;/span&gt;(?)&lt;span style=&quot;font-family: &amp;#34;arial&amp;#34; , &amp;#34;helvetica&amp;#34; , sans-serif ; font-size: 13.3333px ; background-color: rgb(255 , 255 , 255)&quot;&gt;&lt;br&gt;&amp;nbsp;&lt;/span&gt;" style="text;html=1;strokeColor=none;fillColor=none;align=left;verticalAlign=top;spacingLeft=4;spacingRight=4;whiteSpace=wrap;overflow=hidden;rotatable=0;points=[[0,0.5],[1,0.5]];portConstraint=eastwest;" parent="9PYEujNsPARz0ICmjyJu-9" vertex="1">
          <mxGeometry y="53" width="240" height="26" as="geometry" />
        </mxCell>
        <mxCell id="9PYEujNsPARz0ICmjyJu-12" value="FK&amp;nbsp; locationId :&amp;nbsp;&lt;span style=&quot;font-family: &amp;#34;arial&amp;#34; , &amp;#34;helvetica&amp;#34; , sans-serif ; font-size: 13.3333px ; background-color: rgb(255 , 255 , 255)&quot;&gt;BIGINT&lt;/span&gt;(?)&lt;span style=&quot;font-family: &amp;#34;arial&amp;#34; , &amp;#34;helvetica&amp;#34; , sans-serif ; font-size: 13.3333px ; background-color: rgb(255 , 255 , 255)&quot;&gt;&lt;br&gt;&amp;nbsp;&lt;/span&gt;" style="text;html=1;strokeColor=none;fillColor=none;align=left;verticalAlign=top;spacingLeft=4;spacingRight=4;whiteSpace=wrap;overflow=hidden;rotatable=0;points=[[0,0.5],[1,0.5]];portConstraint=eastwest;" parent="9PYEujNsPARz0ICmjyJu-9" vertex="1">
          <mxGeometry y="79" width="240" height="26" as="geometry" />
        </mxCell>
        <mxCell id="9PYEujNsPARz0ICmjyJu-13" value="FK&amp;nbsp; priceId :&amp;nbsp;&lt;span style=&quot;font-family: &amp;#34;arial&amp;#34; , &amp;#34;helvetica&amp;#34; , sans-serif ; font-size: 13.3333px ; background-color: rgb(255 , 255 , 255)&quot;&gt;BIGINT&lt;/span&gt;(?)&lt;span style=&quot;font-family: &amp;#34;arial&amp;#34; , &amp;#34;helvetica&amp;#34; , sans-serif ; font-size: 13.3333px ; background-color: rgb(255 , 255 , 255)&quot;&gt;&lt;br&gt;&amp;nbsp;&lt;/span&gt;" style="text;html=1;strokeColor=none;fillColor=none;align=left;verticalAlign=top;spacingLeft=4;spacingRight=4;whiteSpace=wrap;overflow=hidden;rotatable=0;points=[[0,0.5],[1,0.5]];portConstraint=eastwest;" parent="9PYEujNsPARz0ICmjyJu-9" vertex="1">
          <mxGeometry y="105" width="240" height="26" as="geometry" />
        </mxCell>
        <mxCell id="9PYEujNsPARz0ICmjyJu-14" value="startDate : date" style="text;html=1;strokeColor=none;fillColor=none;align=left;verticalAlign=top;spacingLeft=4;spacingRight=4;whiteSpace=wrap;overflow=hidden;rotatable=0;points=[[0,0.5],[1,0.5]];portConstraint=eastwest;" parent="9PYEujNsPARz0ICmjyJu-9" vertex="1">
          <mxGeometry y="131" width="240" height="26" as="geometry" />
        </mxCell>
        <mxCell id="9PYEujNsPARz0ICmjyJu-15" value="endDate : date" style="text;html=1;strokeColor=none;fillColor=none;align=left;verticalAlign=top;spacingLeft=4;spacingRight=4;whiteSpace=wrap;overflow=hidden;rotatable=0;points=[[0,0.5],[1,0.5]];portConstraint=eastwest;" parent="9PYEujNsPARz0ICmjyJu-9" vertex="1">
          <mxGeometry y="157" width="240" height="26" as="geometry" />
        </mxCell>
        <mxCell id="9PYEujNsPARz0ICmjyJu-16" value="isOffer : boolean" style="text;html=1;strokeColor=none;fillColor=none;align=left;verticalAlign=top;spacingLeft=4;spacingRight=4;whiteSpace=wrap;overflow=hidden;rotatable=0;points=[[0,0.5],[1,0.5]];portConstraint=eastwest;" parent="9PYEujNsPARz0ICmjyJu-9" vertex="1">
          <mxGeometry y="183" width="240" height="30" as="geometry" />
        </mxCell>
        <mxCell id="9PYEujNsPARz0ICmjyJu-17" value="subject&amp;nbsp; : VARCHAR(?)" style="text;html=1;strokeColor=none;fillColor=none;align=left;verticalAlign=top;spacingLeft=4;spacingRight=4;whiteSpace=wrap;overflow=hidden;rotatable=0;points=[[0,0.5],[1,0.5]];portConstraint=eastwest;" parent="9PYEujNsPARz0ICmjyJu-9" vertex="1">
          <mxGeometry y="213" width="240" height="30" as="geometry" />
        </mxCell>
        <mxCell id="9PYEujNsPARz0ICmjyJu-18" value="serviceDescription :&amp;nbsp; VARCHAR(?)" style="text;html=1;strokeColor=none;fillColor=none;align=left;verticalAlign=top;spacingLeft=4;spacingRight=4;whiteSpace=wrap;overflow=hidden;rotatable=0;points=[[0,0.5],[1,0.5]];portConstraint=eastwest;" parent="9PYEujNsPARz0ICmjyJu-9" vertex="1">
          <mxGeometry y="243" width="240" height="30" as="geometry" />
        </mxCell>
        <mxCell id="9PYEujNsPARz0ICmjyJu-19" value="isActive : boolean" style="text;html=1;strokeColor=none;fillColor=none;align=left;verticalAlign=top;spacingLeft=4;spacingRight=4;whiteSpace=wrap;overflow=hidden;rotatable=0;points=[[0,0.5],[1,0.5]];portConstraint=eastwest;" parent="9PYEujNsPARz0ICmjyJu-9" vertex="1">
          <mxGeometry y="273" width="240" height="30" as="geometry" />
        </mxCell>
        <mxCell id="9PYEujNsPARz0ICmjyJu-20" value="isDeleted :&amp;nbsp;&lt;span style=&quot;font-family: &amp;#34;open sans&amp;#34; , &amp;#34;arial&amp;#34; , sans-serif ; font-size: 14px&quot;&gt;boolean&lt;/span&gt;" style="text;html=1;strokeColor=none;fillColor=none;align=left;verticalAlign=top;spacingLeft=4;spacingRight=4;whiteSpace=wrap;overflow=hidden;rotatable=0;points=[[0,0.5],[1,0.5]];portConstraint=eastwest;" parent="9PYEujNsPARz0ICmjyJu-9" vertex="1">
          <mxGeometry y="303" width="240" height="26" as="geometry" />
        </mxCell>
        <mxCell id="9PYEujNsPARz0ICmjyJu-21" value="createdDate : date" style="text;html=1;strokeColor=none;fillColor=none;align=left;verticalAlign=top;spacingLeft=4;spacingRight=4;whiteSpace=wrap;overflow=hidden;rotatable=0;points=[[0,0.5],[1,0.5]];portConstraint=eastwest;" parent="9PYEujNsPARz0ICmjyJu-9" vertex="1">
          <mxGeometry y="329" width="240" height="26" as="geometry" />
        </mxCell>
        <mxCell id="Xc7yIvZ5KaULBB_wwvMh-8" style="edgeStyle=orthogonalEdgeStyle;rounded=0;orthogonalLoop=1;jettySize=auto;html=1;" edge="1" parent="9PYEujNsPARz0ICmjyJu-1" source="9PYEujNsPARz0ICmjyJu-23" target="9PYEujNsPARz0ICmjyJu-44">
          <mxGeometry relative="1" as="geometry" />
        </mxCell>
        <mxCell id="9PYEujNsPARz0ICmjyJu-23" value="Area" style="swimlane;html=1;fontStyle=0;childLayout=stackLayout;horizontal=1;startSize=26;fillColor=#FFD966;horizontalStack=0;resizeParent=1;resizeLast=0;collapsible=1;marginBottom=0;swimlaneFillColor=#ffffff;rounded=0;shadow=0;comic=0;labelBackgroundColor=none;strokeWidth=1;fontFamily=Verdana;fontSize=10;align=center;" parent="9PYEujNsPARz0ICmjyJu-1" vertex="1">
          <mxGeometry x="-20" y="-430" width="190" height="140" as="geometry" />
        </mxCell>
        <mxCell id="9PYEujNsPARz0ICmjyJu-24" value="PK&amp;nbsp; &amp;nbsp; &amp;nbsp; &amp;nbsp; &amp;nbsp; &amp;nbsp; &amp;nbsp; &amp;nbsp; &amp;nbsp; &amp;nbsp;id :&amp;nbsp;&lt;span style=&quot;font-family: &amp;#34;arial&amp;#34; , &amp;#34;helvetica&amp;#34; , sans-serif ; background-color: rgb(255 , 255 , 255)&quot;&gt;&lt;font style=&quot;font-size: 12px&quot;&gt;bigint&lt;/font&gt;&lt;/span&gt;(?)&lt;span style=&quot;font-family: &amp;#34;arial&amp;#34; , &amp;#34;helvetica&amp;#34; , sans-serif ; font-size: 13.3333px ; background-color: rgb(255 , 255 , 255)&quot;&gt;&lt;br&gt;&amp;nbsp;&lt;/span&gt;" style="text;html=1;strokeColor=none;fillColor=none;align=left;verticalAlign=top;spacingLeft=4;spacingRight=4;whiteSpace=wrap;overflow=hidden;rotatable=0;points=[[0,0.5],[1,0.5]];portConstraint=eastwest;" parent="9PYEujNsPARz0ICmjyJu-23" vertex="1">
          <mxGeometry y="26" width="190" height="26" as="geometry" />
        </mxCell>
        <mxCell id="9PYEujNsPARz0ICmjyJu-25" value="&amp;nbsp; &amp;nbsp; &amp;nbsp; &amp;nbsp; &amp;nbsp; &amp;nbsp; &amp;nbsp; &amp;nbsp; &amp;nbsp; name :&amp;nbsp; varchar(?)" style="text;html=1;strokeColor=none;fillColor=none;align=left;verticalAlign=top;spacingLeft=4;spacingRight=4;whiteSpace=wrap;overflow=hidden;rotatable=0;points=[[0,0.5],[1,0.5]];portConstraint=eastwest;" parent="9PYEujNsPARz0ICmjyJu-23" vertex="1">
          <mxGeometry y="52" width="190" height="30" as="geometry" />
        </mxCell>
        <mxCell id="9PYEujNsPARz0ICmjyJu-26" value="&amp;nbsp; &amp;nbsp; &amp;nbsp; &amp;nbsp; createdDate : date" style="text;html=1;strokeColor=none;fillColor=none;align=left;verticalAlign=top;spacingLeft=4;spacingRight=4;whiteSpace=wrap;overflow=hidden;rotatable=0;points=[[0,0.5],[1,0.5]];portConstraint=eastwest;" parent="9PYEujNsPARz0ICmjyJu-23" vertex="1">
          <mxGeometry y="82" width="190" height="26" as="geometry" />
        </mxCell>
        <mxCell id="9PYEujNsPARz0ICmjyJu-27" value="&amp;nbsp; &amp;nbsp; &amp;nbsp; &amp;nbsp; &amp;nbsp; &amp;nbsp; isDeleted :&amp;nbsp;&lt;span style=&quot;font-family: &amp;#34;open sans&amp;#34; , &amp;#34;arial&amp;#34; , sans-serif&quot;&gt;&lt;font style=&quot;font-size: 12px&quot;&gt;boolean&lt;/font&gt;&lt;/span&gt;" style="text;html=1;strokeColor=none;fillColor=none;align=left;verticalAlign=top;spacingLeft=4;spacingRight=4;whiteSpace=wrap;overflow=hidden;rotatable=0;points=[[0,0.5],[1,0.5]];portConstraint=eastwest;" parent="9PYEujNsPARz0ICmjyJu-23" vertex="1">
          <mxGeometry y="108" width="190" height="26" as="geometry" />
        </mxCell>
        <mxCell id="9PYEujNsPARz0ICmjyJu-28" value="User" style="swimlane;html=1;fontStyle=0;childLayout=stackLayout;horizontal=1;startSize=26;fillColor=#FFD966;horizontalStack=0;resizeParent=1;resizeLast=0;collapsible=1;marginBottom=0;swimlaneFillColor=#ffffff;rounded=0;shadow=0;comic=0;labelBackgroundColor=none;strokeWidth=1;fontFamily=Verdana;fontSize=10;align=center;" parent="9PYEujNsPARz0ICmjyJu-1" vertex="1">
          <mxGeometry x="-500" y="-950" width="180" height="242" as="geometry" />
        </mxCell>
        <mxCell id="9PYEujNsPARz0ICmjyJu-29" value="PK&amp;nbsp; Id :&amp;nbsp;&lt;span style=&quot;font-family: &amp;#34;arial&amp;#34; , &amp;#34;helvetica&amp;#34; , sans-serif ; font-size: 13.3333px ; background-color: rgb(255 , 255 , 255)&quot;&gt;BIGINT&lt;/span&gt;(?)&lt;span style=&quot;font-family: &amp;#34;arial&amp;#34; , &amp;#34;helvetica&amp;#34; , sans-serif ; font-size: 13.3333px ; background-color: rgb(255 , 255 , 255)&quot;&gt;&lt;br&gt;&amp;nbsp;&lt;/span&gt;" style="text;html=1;strokeColor=none;fillColor=none;align=left;verticalAlign=top;spacingLeft=4;spacingRight=4;whiteSpace=wrap;overflow=hidden;rotatable=0;points=[[0,0.5],[1,0.5]];portConstraint=eastwest;" parent="9PYEujNsPARz0ICmjyJu-28" vertex="1">
          <mxGeometry y="26" width="180" height="26" as="geometry" />
        </mxCell>
        <mxCell id="9PYEujNsPARz0ICmjyJu-30" value="firstName :&amp;nbsp; VARCHAR(?)" style="text;html=1;strokeColor=none;fillColor=none;align=left;verticalAlign=top;spacingLeft=4;spacingRight=4;whiteSpace=wrap;overflow=hidden;rotatable=0;points=[[0,0.5],[1,0.5]];portConstraint=eastwest;" parent="9PYEujNsPARz0ICmjyJu-28" vertex="1">
          <mxGeometry y="52" width="180" height="30" as="geometry" />
        </mxCell>
        <mxCell id="9PYEujNsPARz0ICmjyJu-31" value="lastName :&amp;nbsp; VARCHAR(?)" style="text;html=1;strokeColor=none;fillColor=none;align=left;verticalAlign=top;spacingLeft=4;spacingRight=4;whiteSpace=wrap;overflow=hidden;rotatable=0;points=[[0,0.5],[1,0.5]];portConstraint=eastwest;" parent="9PYEujNsPARz0ICmjyJu-28" vertex="1">
          <mxGeometry y="82" width="180" height="30" as="geometry" />
        </mxCell>
        <mxCell id="9PYEujNsPARz0ICmjyJu-32" value="isMale :&amp;nbsp;&lt;span style=&quot;font-family: &amp;#34;open sans&amp;#34; , &amp;#34;arial&amp;#34; , sans-serif ; font-size: 14px&quot;&gt;boolean&lt;/span&gt;" style="text;html=1;strokeColor=none;fillColor=none;align=left;verticalAlign=top;spacingLeft=4;spacingRight=4;whiteSpace=wrap;overflow=hidden;rotatable=0;points=[[0,0.5],[1,0.5]];portConstraint=eastwest;" parent="9PYEujNsPARz0ICmjyJu-28" vertex="1">
          <mxGeometry y="112" width="180" height="26" as="geometry" />
        </mxCell>
        <mxCell id="9PYEujNsPARz0ICmjyJu-33" value="FK&amp;nbsp; serviceId :&amp;nbsp;&lt;span style=&quot;font-family: &amp;#34;arial&amp;#34; , &amp;#34;helvetica&amp;#34; , sans-serif ; font-size: 13.3333px ; background-color: rgb(255 , 255 , 255)&quot;&gt;BIGINT&lt;/span&gt;(?)&lt;span style=&quot;font-family: &amp;#34;arial&amp;#34; , &amp;#34;helvetica&amp;#34; , sans-serif ; font-size: 13.3333px ; background-color: rgb(255 , 255 , 255)&quot;&gt;&lt;br&gt;&amp;nbsp;&lt;/span&gt;" style="text;html=1;strokeColor=none;fillColor=none;align=left;verticalAlign=top;spacingLeft=4;spacingRight=4;whiteSpace=wrap;overflow=hidden;rotatable=0;points=[[0,0.5],[1,0.5]];portConstraint=eastwest;" parent="9PYEujNsPARz0ICmjyJu-28" vertex="1">
          <mxGeometry y="138" width="180" height="26" as="geometry" />
        </mxCell>
        <mxCell id="9PYEujNsPARz0ICmjyJu-34" value="FK&amp;nbsp; locationId :&amp;nbsp;&lt;span style=&quot;font-family: &amp;#34;arial&amp;#34; , &amp;#34;helvetica&amp;#34; , sans-serif ; font-size: 13.3333px ; background-color: rgb(255 , 255 , 255)&quot;&gt;BIGINT&lt;/span&gt;(?)&lt;span style=&quot;font-family: &amp;#34;arial&amp;#34; , &amp;#34;helvetica&amp;#34; , sans-serif ; font-size: 13.3333px ; background-color: rgb(255 , 255 , 255)&quot;&gt;&lt;br&gt;&amp;nbsp;&lt;/span&gt;" style="text;html=1;strokeColor=none;fillColor=none;align=left;verticalAlign=top;spacingLeft=4;spacingRight=4;whiteSpace=wrap;overflow=hidden;rotatable=0;points=[[0,0.5],[1,0.5]];portConstraint=eastwest;" parent="9PYEujNsPARz0ICmjyJu-28" vertex="1">
          <mxGeometry y="164" width="180" height="26" as="geometry" />
        </mxCell>
        <mxCell id="9PYEujNsPARz0ICmjyJu-35" value="isDeleted :&amp;nbsp;&lt;span style=&quot;font-family: &amp;#34;open sans&amp;#34; , &amp;#34;arial&amp;#34; , sans-serif ; font-size: 14px&quot;&gt;boolean&lt;/span&gt;" style="text;html=1;strokeColor=none;fillColor=none;align=left;verticalAlign=top;spacingLeft=4;spacingRight=4;whiteSpace=wrap;overflow=hidden;rotatable=0;points=[[0,0.5],[1,0.5]];portConstraint=eastwest;" parent="9PYEujNsPARz0ICmjyJu-28" vertex="1">
          <mxGeometry y="190" width="180" height="26" as="geometry" />
        </mxCell>
        <mxCell id="9PYEujNsPARz0ICmjyJu-36" value="createdDate : date" style="text;html=1;strokeColor=none;fillColor=none;align=left;verticalAlign=top;spacingLeft=4;spacingRight=4;whiteSpace=wrap;overflow=hidden;rotatable=0;points=[[0,0.5],[1,0.5]];portConstraint=eastwest;" parent="9PYEujNsPARz0ICmjyJu-28" vertex="1">
          <mxGeometry y="216" width="180" height="26" as="geometry" />
        </mxCell>
        <mxCell id="Xc7yIvZ5KaULBB_wwvMh-0" style="edgeStyle=orthogonalEdgeStyle;rounded=0;orthogonalLoop=1;jettySize=auto;html=1;entryX=0.25;entryY=1;entryDx=0;entryDy=0;" edge="1" parent="9PYEujNsPARz0ICmjyJu-1" source="9PYEujNsPARz0ICmjyJu-39" target="9PYEujNsPARz0ICmjyJu-9">
          <mxGeometry relative="1" as="geometry">
            <Array as="points">
              <mxPoint x="-250" y="-541" />
              <mxPoint x="-150" y="-541" />
            </Array>
          </mxGeometry>
        </mxCell>
        <mxCell id="Xc7yIvZ5KaULBB_wwvMh-1" style="edgeStyle=orthogonalEdgeStyle;rounded=0;orthogonalLoop=1;jettySize=auto;html=1;entryX=0.427;entryY=1.004;entryDx=0;entryDy=0;entryPerimeter=0;" edge="1" parent="9PYEujNsPARz0ICmjyJu-1" source="9PYEujNsPARz0ICmjyJu-39" target="9PYEujNsPARz0ICmjyJu-36">
          <mxGeometry relative="1" as="geometry">
            <mxPoint x="-320" y="-581" as="targetPoint" />
            <Array as="points">
              <mxPoint x="-250" y="-541" />
              <mxPoint x="-423" y="-541" />
            </Array>
          </mxGeometry>
        </mxCell>
        <mxCell id="9PYEujNsPARz0ICmjyJu-39" value="Location" style="swimlane;html=1;fontStyle=0;childLayout=stackLayout;horizontal=1;startSize=26;fillColor=#FFD966;horizontalStack=0;resizeParent=1;resizeLast=0;collapsible=1;marginBottom=0;swimlaneFillColor=#ffffff;rounded=0;shadow=0;comic=0;labelBackgroundColor=none;strokeWidth=1;fontFamily=Verdana;fontSize=10;align=center;" parent="9PYEujNsPARz0ICmjyJu-1" vertex="1">
          <mxGeometry x="-330" y="-511" width="190" height="221" as="geometry" />
        </mxCell>
        <mxCell id="9PYEujNsPARz0ICmjyJu-40" value="PK&amp;nbsp; &amp;nbsp; &amp;nbsp; &amp;nbsp; &amp;nbsp; &amp;nbsp; &amp;nbsp; &amp;nbsp; &amp;nbsp; &amp;nbsp; &amp;nbsp; &amp;nbsp; id :&amp;nbsp;&lt;span style=&quot;font-family: &amp;#34;arial&amp;#34; , &amp;#34;helvetica&amp;#34; , sans-serif ; font-size: 13.3333px ; background-color: rgb(255 , 255 , 255)&quot;&gt;bigint&lt;/span&gt;(?)&lt;span style=&quot;font-family: &amp;#34;arial&amp;#34; , &amp;#34;helvetica&amp;#34; , sans-serif ; font-size: 13.3333px ; background-color: rgb(255 , 255 , 255)&quot;&gt;&lt;br&gt;&amp;nbsp;&lt;/span&gt;" style="text;html=1;strokeColor=none;fillColor=none;align=left;verticalAlign=top;spacingLeft=4;spacingRight=4;whiteSpace=wrap;overflow=hidden;rotatable=0;points=[[0,0.5],[1,0.5]];portConstraint=eastwest;" parent="9PYEujNsPARz0ICmjyJu-39" vertex="1">
          <mxGeometry y="26" width="190" height="26" as="geometry" />
        </mxCell>
        <mxCell id="9PYEujNsPARz0ICmjyJu-41" value="&amp;nbsp; &amp;nbsp; &amp;nbsp; &amp;nbsp; &amp;nbsp; &amp;nbsp; &amp;nbsp; &amp;nbsp; &amp;nbsp; &amp;nbsp;country : varchar(?)" style="text;html=1;strokeColor=none;fillColor=none;align=left;verticalAlign=top;spacingLeft=4;spacingRight=4;whiteSpace=wrap;overflow=hidden;rotatable=0;points=[[0,0.5],[1,0.5]];portConstraint=eastwest;" parent="9PYEujNsPARz0ICmjyJu-39" vertex="1">
          <mxGeometry y="52" width="190" height="30" as="geometry" />
        </mxCell>
        <mxCell id="9PYEujNsPARz0ICmjyJu-42" value="&amp;nbsp; &amp;nbsp; &amp;nbsp; &amp;nbsp; &amp;nbsp; &amp;nbsp; &amp;nbsp; &amp;nbsp; &amp;nbsp; &amp;nbsp; &amp;nbsp; &amp;nbsp; &amp;nbsp;city : varchar(?)" style="text;html=1;strokeColor=none;fillColor=none;align=left;verticalAlign=top;spacingLeft=4;spacingRight=4;whiteSpace=wrap;overflow=hidden;rotatable=0;points=[[0,0.5],[1,0.5]];portConstraint=eastwest;" parent="9PYEujNsPARz0ICmjyJu-39" vertex="1">
          <mxGeometry y="82" width="190" height="28" as="geometry" />
        </mxCell>
        <mxCell id="9PYEujNsPARz0ICmjyJu-43" value="&amp;nbsp; &amp;nbsp; &amp;nbsp; &amp;nbsp; &amp;nbsp; &amp;nbsp; &amp;nbsp; &amp;nbsp; &amp;nbsp; &amp;nbsp; &amp;nbsp;street : varchar(?)" style="text;html=1;strokeColor=none;fillColor=none;align=left;verticalAlign=top;spacingLeft=4;spacingRight=4;whiteSpace=wrap;overflow=hidden;rotatable=0;points=[[0,0.5],[1,0.5]];portConstraint=eastwest;" parent="9PYEujNsPARz0ICmjyJu-39" vertex="1">
          <mxGeometry y="110" width="190" height="28" as="geometry" />
        </mxCell>
        <mxCell id="9PYEujNsPARz0ICmjyJu-44" value="FK&amp;nbsp; &amp;nbsp; &amp;nbsp; &amp;nbsp; &amp;nbsp; &amp;nbsp; &amp;nbsp; &amp;nbsp;areaId :&amp;nbsp;&lt;span style=&quot;font-family: &amp;#34;arial&amp;#34; , &amp;#34;helvetica&amp;#34; , sans-serif ; font-size: 13.3333px ; background-color: rgb(255 , 255 , 255)&quot;&gt;bigint&lt;/span&gt;(?)&lt;span style=&quot;font-family: &amp;#34;arial&amp;#34; , &amp;#34;helvetica&amp;#34; , sans-serif ; font-size: 13.3333px ; background-color: rgb(255 , 255 , 255)&quot;&gt;&lt;br&gt;&amp;nbsp;&lt;/span&gt;" style="text;html=1;strokeColor=none;fillColor=none;align=left;verticalAlign=top;spacingLeft=4;spacingRight=4;whiteSpace=wrap;overflow=hidden;rotatable=0;points=[[0,0.5],[1,0.5]];portConstraint=eastwest;" parent="9PYEujNsPARz0ICmjyJu-39" vertex="1">
          <mxGeometry y="138" width="190" height="26" as="geometry" />
        </mxCell>
        <mxCell id="9PYEujNsPARz0ICmjyJu-45" value="&amp;nbsp; &amp;nbsp; &amp;nbsp; &amp;nbsp; &amp;nbsp; createdDate : date" style="text;html=1;strokeColor=none;fillColor=none;align=left;verticalAlign=top;spacingLeft=4;spacingRight=4;whiteSpace=wrap;overflow=hidden;rotatable=0;points=[[0,0.5],[1,0.5]];portConstraint=eastwest;" parent="9PYEujNsPARz0ICmjyJu-39" vertex="1">
          <mxGeometry y="164" width="190" height="26" as="geometry" />
        </mxCell>
        <mxCell id="9PYEujNsPARz0ICmjyJu-46" value="&lt;font style=&quot;font-size: 12px&quot;&gt;&amp;nbsp; &amp;nbsp; &amp;nbsp; &amp;nbsp; &amp;nbsp; &amp;nbsp; &amp;nbsp; isDeleted :&amp;nbsp;&lt;span style=&quot;font-family: &amp;#34;open sans&amp;#34; , &amp;#34;arial&amp;#34; , sans-serif&quot;&gt;boolean&lt;/span&gt;&lt;/font&gt;" style="text;html=1;strokeColor=none;fillColor=none;align=left;verticalAlign=top;spacingLeft=4;spacingRight=4;whiteSpace=wrap;overflow=hidden;rotatable=0;points=[[0,0.5],[1,0.5]];portConstraint=eastwest;" parent="9PYEujNsPARz0ICmjyJu-39" vertex="1">
          <mxGeometry y="190" width="190" height="26" as="geometry" />
        </mxCell>
        <mxCell id="9PYEujNsPARz0ICmjyJu-48" value="Currency" style="swimlane;html=1;fontStyle=0;childLayout=stackLayout;horizontal=1;startSize=26;fillColor=#FFD966;horizontalStack=0;resizeParent=1;resizeLast=0;collapsible=1;marginBottom=0;swimlaneFillColor=#ffffff;rounded=0;shadow=0;comic=0;labelBackgroundColor=none;strokeWidth=1;fontFamily=Verdana;fontSize=10;align=center;" parent="9PYEujNsPARz0ICmjyJu-1" vertex="1">
          <mxGeometry x="450" y="-590" width="190" height="150" as="geometry" />
        </mxCell>
        <mxCell id="9PYEujNsPARz0ICmjyJu-49" value="&lt;font style=&quot;font-size: 12px&quot;&gt;PK&amp;nbsp; &amp;nbsp; &amp;nbsp; &amp;nbsp; &amp;nbsp; &amp;nbsp; &amp;nbsp; &amp;nbsp; &amp;nbsp; &amp;nbsp; &amp;nbsp;id : &lt;span style=&quot;background-color: rgb(255 , 255 , 255)&quot;&gt;bigint&lt;/span&gt;(?)&lt;/font&gt;&lt;span style=&quot;background-color: rgb(255 , 255 , 255)&quot;&gt;&lt;font size=&quot;3&quot;&gt;&lt;br&gt;&lt;/font&gt;&lt;span style=&quot;font-size: 13.3333px&quot;&gt;&amp;nbsp;&lt;/span&gt;&lt;/span&gt;" style="text;html=1;strokeColor=none;fillColor=none;align=left;verticalAlign=top;spacingLeft=4;spacingRight=4;whiteSpace=wrap;overflow=hidden;rotatable=0;points=[[0,0.5],[1,0.5]];portConstraint=eastwest;" parent="9PYEujNsPARz0ICmjyJu-48" vertex="1">
          <mxGeometry y="26" width="190" height="26" as="geometry" />
        </mxCell>
        <mxCell id="9PYEujNsPARz0ICmjyJu-50" value="&amp;nbsp; &amp;nbsp; &amp;nbsp; &amp;nbsp; &amp;nbsp; &amp;nbsp; &amp;nbsp; &amp;nbsp;currency : varchar(?)" style="text;html=1;strokeColor=none;fillColor=none;align=left;verticalAlign=top;spacingLeft=4;spacingRight=4;whiteSpace=wrap;overflow=hidden;rotatable=0;points=[[0,0.5],[1,0.5]];portConstraint=eastwest;" parent="9PYEujNsPARz0ICmjyJu-48" vertex="1">
          <mxGeometry y="52" width="190" height="30" as="geometry" />
        </mxCell>
        <mxCell id="9PYEujNsPARz0ICmjyJu-51" value="&amp;nbsp; &amp;nbsp; &amp;nbsp; &amp;nbsp; &amp;nbsp;createdDate : date" style="text;html=1;strokeColor=none;fillColor=none;align=left;verticalAlign=top;spacingLeft=4;spacingRight=4;whiteSpace=wrap;overflow=hidden;rotatable=0;points=[[0,0.5],[1,0.5]];portConstraint=eastwest;" parent="9PYEujNsPARz0ICmjyJu-48" vertex="1">
          <mxGeometry y="82" width="190" height="26" as="geometry" />
        </mxCell>
        <mxCell id="9PYEujNsPARz0ICmjyJu-52" value="&amp;nbsp; &amp;nbsp; &amp;nbsp; &amp;nbsp; &amp;nbsp; &amp;nbsp; &amp;nbsp; isDeleted : boolean" style="text;html=1;strokeColor=none;fillColor=none;align=left;verticalAlign=top;spacingLeft=4;spacingRight=4;whiteSpace=wrap;overflow=hidden;rotatable=0;points=[[0,0.5],[1,0.5]];portConstraint=eastwest;" parent="9PYEujNsPARz0ICmjyJu-48" vertex="1">
          <mxGeometry y="108" width="190" height="26" as="geometry" />
        </mxCell>
        <mxCell id="Xc7yIvZ5KaULBB_wwvMh-7" style="edgeStyle=orthogonalEdgeStyle;rounded=0;orthogonalLoop=1;jettySize=auto;html=1;" edge="1" parent="9PYEujNsPARz0ICmjyJu-1" source="9PYEujNsPARz0ICmjyJu-54" target="9PYEujNsPARz0ICmjyJu-63">
          <mxGeometry relative="1" as="geometry" />
        </mxCell>
        <mxCell id="9PYEujNsPARz0ICmjyJu-54" value="PriceRate" style="swimlane;html=1;fontStyle=0;childLayout=stackLayout;horizontal=1;startSize=26;fillColor=#FFD966;horizontalStack=0;resizeParent=1;resizeLast=0;collapsible=1;marginBottom=0;swimlaneFillColor=#ffffff;rounded=0;shadow=0;comic=0;labelBackgroundColor=none;strokeWidth=1;fontFamily=Verdana;fontSize=10;align=center;" parent="9PYEujNsPARz0ICmjyJu-1" vertex="1">
          <mxGeometry x="390" y="-821" width="190" height="134" as="geometry" />
        </mxCell>
        <mxCell id="9PYEujNsPARz0ICmjyJu-55" value="&lt;font style=&quot;font-size: 12px&quot;&gt;PK&amp;nbsp; &amp;nbsp; &amp;nbsp; &amp;nbsp; &amp;nbsp; &amp;nbsp; &amp;nbsp; &amp;nbsp; &amp;nbsp; &amp;nbsp;id :&amp;nbsp;&lt;span style=&quot;font-family: &amp;#34;arial&amp;#34; , &amp;#34;helvetica&amp;#34; , sans-serif ; background-color: rgb(255 , 255 , 255)&quot;&gt;bigint&lt;/span&gt;(?)&lt;span style=&quot;font-family: &amp;#34;arial&amp;#34; , &amp;#34;helvetica&amp;#34; , sans-serif ; background-color: rgb(255 , 255 , 255)&quot;&gt;&lt;br&gt;&amp;nbsp;&lt;/span&gt;&lt;/font&gt;" style="text;html=1;strokeColor=none;fillColor=none;align=left;verticalAlign=top;spacingLeft=4;spacingRight=4;whiteSpace=wrap;overflow=hidden;rotatable=0;points=[[0,0.5],[1,0.5]];portConstraint=eastwest;" parent="9PYEujNsPARz0ICmjyJu-54" vertex="1">
          <mxGeometry y="26" width="190" height="26" as="geometry" />
        </mxCell>
        <mxCell id="9PYEujNsPARz0ICmjyJu-56" value="&amp;nbsp; &amp;nbsp; &amp;nbsp; &amp;nbsp; &amp;nbsp; &amp;nbsp; &amp;nbsp; &amp;nbsp; &amp;nbsp; &amp;nbsp; type : varchar(?)" style="text;html=1;strokeColor=none;fillColor=none;align=left;verticalAlign=top;spacingLeft=4;spacingRight=4;whiteSpace=wrap;overflow=hidden;rotatable=0;points=[[0,0.5],[1,0.5]];portConstraint=eastwest;" parent="9PYEujNsPARz0ICmjyJu-54" vertex="1">
          <mxGeometry y="52" width="190" height="30" as="geometry" />
        </mxCell>
        <mxCell id="9PYEujNsPARz0ICmjyJu-57" value="&amp;nbsp; &amp;nbsp; &amp;nbsp; &amp;nbsp;createdDate : date" style="text;html=1;strokeColor=none;fillColor=none;align=left;verticalAlign=top;spacingLeft=4;spacingRight=4;whiteSpace=wrap;overflow=hidden;rotatable=0;points=[[0,0.5],[1,0.5]];portConstraint=eastwest;" parent="9PYEujNsPARz0ICmjyJu-54" vertex="1">
          <mxGeometry y="82" width="190" height="26" as="geometry" />
        </mxCell>
        <mxCell id="9PYEujNsPARz0ICmjyJu-58" value="&lt;font style=&quot;font-size: 12px&quot;&gt;&amp;nbsp; &amp;nbsp; &amp;nbsp; &amp;nbsp; &amp;nbsp; &amp;nbsp; isDeleted :&amp;nbsp;&lt;span style=&quot;font-family: &amp;#34;open sans&amp;#34; , &amp;#34;arial&amp;#34; , sans-serif&quot;&gt;boolean&lt;/span&gt;&lt;/font&gt;" style="text;html=1;strokeColor=none;fillColor=none;align=left;verticalAlign=top;spacingLeft=4;spacingRight=4;whiteSpace=wrap;overflow=hidden;rotatable=0;points=[[0,0.5],[1,0.5]];portConstraint=eastwest;" parent="9PYEujNsPARz0ICmjyJu-54" vertex="1">
          <mxGeometry y="108" width="190" height="26" as="geometry" />
        </mxCell>
        <mxCell id="9PYEujNsPARz0ICmjyJu-60" value="Price" style="swimlane;html=1;fontStyle=0;childLayout=stackLayout;horizontal=1;startSize=26;fillColor=#FFD966;horizontalStack=0;resizeParent=1;resizeLast=0;collapsible=1;marginBottom=0;swimlaneFillColor=#ffffff;rounded=0;shadow=0;comic=0;labelBackgroundColor=none;strokeWidth=1;fontFamily=Verdana;fontSize=10;align=center;" parent="9PYEujNsPARz0ICmjyJu-1" vertex="1">
          <mxGeometry x="120" y="-731" width="190" height="150" as="geometry" />
        </mxCell>
        <mxCell id="9PYEujNsPARz0ICmjyJu-61" value="PK&amp;nbsp; &amp;nbsp; &amp;nbsp; &amp;nbsp; &amp;nbsp; &amp;nbsp; &amp;nbsp; &amp;nbsp; &amp;nbsp; &amp;nbsp; &amp;nbsp; &amp;nbsp; &amp;nbsp; id :&amp;nbsp;&lt;span style=&quot;font-family: &amp;#34;arial&amp;#34; , &amp;#34;helvetica&amp;#34; , sans-serif ; font-size: 13.3333px ; background-color: rgb(255 , 255 , 255)&quot;&gt;bigint&lt;/span&gt;(?)&lt;span style=&quot;font-family: &amp;#34;arial&amp;#34; , &amp;#34;helvetica&amp;#34; , sans-serif ; font-size: 13.3333px ; background-color: rgb(255 , 255 , 255)&quot;&gt;&lt;br&gt;&amp;nbsp;&lt;/span&gt;" style="text;html=1;strokeColor=none;fillColor=none;align=left;verticalAlign=top;spacingLeft=4;spacingRight=4;whiteSpace=wrap;overflow=hidden;rotatable=0;points=[[0,0.5],[1,0.5]];portConstraint=eastwest;" parent="9PYEujNsPARz0ICmjyJu-60" vertex="1">
          <mxGeometry y="26" width="190" height="26" as="geometry" />
        </mxCell>
        <mxCell id="9PYEujNsPARz0ICmjyJu-62" value="&amp;nbsp; &amp;nbsp; &amp;nbsp; &amp;nbsp; &amp;nbsp; &amp;nbsp; &amp;nbsp; &amp;nbsp; &amp;nbsp; &amp;nbsp; &amp;nbsp; &amp;nbsp; &amp;nbsp; price : double(?)" style="text;html=1;strokeColor=none;fillColor=none;align=left;verticalAlign=top;spacingLeft=4;spacingRight=4;whiteSpace=wrap;overflow=hidden;rotatable=0;points=[[0,0.5],[1,0.5]];portConstraint=eastwest;" parent="9PYEujNsPARz0ICmjyJu-60" vertex="1">
          <mxGeometry y="52" width="190" height="30" as="geometry" />
        </mxCell>
        <mxCell id="9PYEujNsPARz0ICmjyJu-63" value="FK&amp;nbsp; &amp;nbsp; &amp;nbsp; &amp;nbsp; &amp;nbsp; &amp;nbsp;priceRateId : &lt;font face=&quot;arial, helvetica, sans-serif&quot;&gt;&lt;span style=&quot;font-size: 13.3333px ; background-color: rgb(255 , 255 , 255)&quot;&gt;bigint&lt;/span&gt;&lt;/font&gt;(?)&lt;span style=&quot;font-family: &amp;#34;arial&amp;#34; , &amp;#34;helvetica&amp;#34; , sans-serif ; font-size: 13.3333px ; background-color: rgb(255 , 255 , 255)&quot;&gt;&lt;br&gt;&amp;nbsp;&lt;/span&gt;" style="text;html=1;strokeColor=none;fillColor=none;align=left;verticalAlign=top;spacingLeft=4;spacingRight=4;whiteSpace=wrap;overflow=hidden;rotatable=0;points=[[0,0.5],[1,0.5]];portConstraint=eastwest;" parent="9PYEujNsPARz0ICmjyJu-60" vertex="1">
          <mxGeometry y="82" width="190" height="30" as="geometry" />
        </mxCell>
        <mxCell id="9PYEujNsPARz0ICmjyJu-64" value="FK&amp;nbsp; &amp;nbsp; &amp;nbsp; &amp;nbsp; &amp;nbsp; &amp;nbsp; currencyId :&amp;nbsp;&lt;span style=&quot;font-family: &amp;#34;arial&amp;#34; , &amp;#34;helvetica&amp;#34; , sans-serif ; font-size: 13.3333px ; background-color: rgb(255 , 255 , 255)&quot;&gt;bigint&lt;/span&gt;(?)&lt;span style=&quot;font-family: &amp;#34;arial&amp;#34; , &amp;#34;helvetica&amp;#34; , sans-serif ; font-size: 13.3333px ; background-color: rgb(255 , 255 , 255)&quot;&gt;&lt;br&gt;&amp;nbsp;&lt;/span&gt;" style="text;html=1;strokeColor=none;fillColor=none;align=left;verticalAlign=top;spacingLeft=4;spacingRight=4;whiteSpace=wrap;overflow=hidden;rotatable=0;points=[[0,0.5],[1,0.5]];portConstraint=eastwest;" parent="9PYEujNsPARz0ICmjyJu-60" vertex="1">
          <mxGeometry y="112" width="190" height="30" as="geometry" />
        </mxCell>
        <mxCell id="Xc7yIvZ5KaULBB_wwvMh-3" style="edgeStyle=orthogonalEdgeStyle;rounded=0;orthogonalLoop=1;jettySize=auto;html=1;" edge="1" parent="9PYEujNsPARz0ICmjyJu-1" source="9PYEujNsPARz0ICmjyJu-62" target="9PYEujNsPARz0ICmjyJu-13">
          <mxGeometry relative="1" as="geometry" />
        </mxCell>
        <mxCell id="Xc7yIvZ5KaULBB_wwvMh-6" style="edgeStyle=orthogonalEdgeStyle;rounded=0;orthogonalLoop=1;jettySize=auto;html=1;" edge="1" parent="9PYEujNsPARz0ICmjyJu-1" source="9PYEujNsPARz0ICmjyJu-50" target="9PYEujNsPARz0ICmjyJu-64">
          <mxGeometry relative="1" as="geometry" />
        </mxCell>
        <mxCell id="Xc7yIvZ5KaULBB_wwvMh-9" value="" style="shape=image;verticalLabelPosition=bottom;labelBackgroundColor=#ffffff;verticalAlign=top;aspect=fixed;imageAspect=0;image=data:image/png,iVBORw0KGgoAAAANSUhEUgAAAhkAAAGPCAYAAADxzcJIAAAgAElEQVR4Ae29BZQkRda/DcvuywLruyyyCyzu7ovD4u7u7u5ugzO4u7sMDO4yMLi7DIO7u9zvPPH/sk9NUd1T3dPZlZn1xDk5VV2VGRnxREzGL+69ETVSmCQgAQlIQAISkEAOBEbKIU+zlIAEJCABCUhAAqHIsBNIQAISkIAEJJALAUVGLljNVAISkIAEJCABRYZ9QAISkIAEJCCBXAgoMnLBaqYSkIAEJCABCSgy7AMSkIAEJCABCeRCQJGRC1YzlYAEJCABCUhAkWEfkIAEJCABCUggFwKKjFywmqkEJCABCUhAAooM+4AEJCABCUhAArkQUGTkgtVMJSABCUhAAhJQZNgHJCABCUhAAhLIhYAiIxesZioBCUhAAhKQgCLDPiABCUhAAhKQQC4EFBm5YDVTCUhAAhKQgAQUGfYBCUhAAhKQgARyIaDIyAWrmUpAAhKQgAQkoMiwD0hAAhKQgAQkkAsBRUYuWM1UAhKQgAQkIAFFhn1AAhKQgAQkIIFcCCgycsFqphKQgAQkIAEJKDLsAxKQQKEIvPDCC7HrrrvGjDPOGEOGDImff/65UOWzMBKQQPMEFBnNs/JMCUigDwgoMvoAcoFvgaj84osv4tNPP03HV199FT/++GOBS2zRuiKgyOiKjt9JQAJ9TkCR0efIC3HD77//Pt577714+OGH48orr4xrr702rr766rj++uvjwQcfjHfffTd++OGHQpTVQjRPQJHRPCvPlIAE+oCAIqMPIBfsFgiMl156Kc4999zYbrvtYsstt4yDDz449ttvv9h+++1jxx13jLPPPjtefPHF+OmnnwpWeovTFQFFRld0/E4CEuhzAoqMPkfe8hu+8sorceyxx8Yqq6wSu+yyS1x88cVx6623xk033RTnnXde7L777rHWWmvF4YcfniwauFS++eabePXVV+Ojjz5Kr0899VRwvPHGG/Hdd9911AkB8+abb8Zzzz2Xvqd/YTHRKtKBKNc3ioxc8Zq5BCTQXQKKjO4SK//5uEWWW265WG211eLRRx8dpkKICVwoG264YSy99NJx8803pxiN119/PQ455JDkTjnnnHPiiCOOSJaP008/PV5++eWOPJ5++ulkITnmmGPiqKOOiuOOOy6uuOKKQNiY8iegyMifsXeQgAS6QUCR0Q1YFTgV98ehhx4ac845Z5x88skNa4TV4bTTTotFF100DjjggPj2229j0KBBMcUUU8TOO++crj/ooINizTXXjBVXXDFZP3755ZfAirHPPvvEZpttFnvvvXc6j5VLW2+9dboX35vyJVA4kUHH+Prrr+Ozzz7riC7Ooox9/X/R1nKQQ5X7wEMPPRTbbrttTDvttMm8/fHHH/f4WcBz5Msvv0zLYHm2mIpHgPZBKCywwAJx9913d1rAG264IVZaaaVYd911k8i48847Y4wxxkjulSeeeCKtSLnssstiySWXjPXWW6/D2jH++OMnoYErhb6EONl8881j4YUXTm6UTm/oF71CoHAiA18aHWX//feP3XbbzUMG9oE26wMbb7xxzDHHHPHPf/4zDQbMPHv6LNh3332TqZwlkYqMXhkzej2TDz/8MLbZZptkpXjsscc6zf+OO+6IlVdeOZZaaqlhRAZiI7NIPPLII0mEzDfffMHSV8aS0UcfPcVysFqFlSocO+20U8w000wxYMCATu/nF71DoHAiA1WL723ccceN3//+9x4ysA+0WR/4v//7vxhllFFi5JFHjlFHHTUdPX0WjDnmmMl8zvJHN/XqnUGjt3NhYrnHHnvE/PPPH3fddVen2Q8cODDFbay++urDiAyESSYgCQTFKoLIwIpFoCh9Z6ONNoo999wz9tprr3QgaljBct1113V6P7/oHQKFExn43uhoRBQTwOMhA/tAe/WBAw88MBZbbLEYb7zxkg8dX3xP+wABgQQK4oLNBqLeeXSaS28RoF369+8f8847bxCc2WjVB+13/PHHJxcHsRfEZGTukscff7yjKASDYvlCZGC9IsZjtNFGi7POOiu5SdhvgwOXCW65t956q+Na3+RDoHAigw5H52BZEmY0DxnYB9qrDzzwwAMpMI+YDGap77//fo+fAzxHPv/8c2My8hk/ei3X2267LdZee+1YfvnlA7cIlidcIKwsYbkp3xOLQUwGk9BmRAYWEvoS1iyE6tChQ1N8zgcffBC4VbgP4sWUL4HCiYx8q2vuEpBA0Qm4uqToLdT75UNUYHViCSubb5100klx1VVXxaWXXpqsEWzGhcjAmkHwZjMiA/cYAdKsNmE1yfnnn5/ECrEZWExOOOGEYfbT6P1amSMEFBn2AwlIoFAEFBmFao4+KQyCgA2zLr/88hSfgajIAn532GGH9NmFF17YsbcFVg7cJLjVavfEQKyceuqpaXVSVnACPYnHIO6jX79+aSdRXtm63N9EySjl96rIyI+tOUtAAj0goMjoAbQKXILQ+OSTT2Lw4MFpBcgll1ySrBmsAMHtgdskEwXsrYEblcBNAjyzhPvjmWeeiXvvvTf7KH3P9YiNa665JgggJS6D/Ez5E1Bk5M/YO0hAAt0goMjoBqwKn4q1ordXBCFS/O2Tvu00ioy+5e3dJCCB4RBQZAwHkF9LoEQEFBklaiyLKoF2IMAvbeJDn3322WPIkCG9PpttB4bWUQJFIaDIKEpLWA4JSCARYIkhW0jzq5z46HvbZC5mCUig7wgoMvqOtXeSgASaIIDfnL1yCOzDf+4mWk1A8xQJFJSAIqOgDWOxJCABCUhAAmUnoMgoewtafglIQAISkEBBCSgyCtowFksCEpCABCRQdgKKjLK3oOWXgAQkIAEJFJSAIqOgDWOxJCABCUhAAmUnoMgoewtafglIQAISkEBBCSgyCtowFksCEpCABCRQdgKKjLK3oOWXgAQkIAEJFJSAIqOgDWOxJCABCUhAAmUnoMgoewtafglIQAISkEBBCSgyCtowFksCEpCABCRQdgKKjLK3oOWXgAQkIAEJFJSAIqOgDWOxJCABCUhAAmUnoMgoewtafglIQAISkEBBCSgyCtowFksCEpCABCRQdgKKjLK3oOWXgAQkIAEJFJSAIqOgDWOxJCABCUhAAmUnoMgoewtafglIQAISkEBBCSgyCtowFksCEpCABCRQdgKKjLK3oOWXgAQkIAEJFJSAIqOgDWOxJCABCUhAAmUnoMgoewtafglIQAISkEBBCSgyCtowFksCEpCABCRQdgKKjLK3oOWXgAQkIAEJFJSAIqOgDWOxJCABCUhAAmUnoMgoewtafglIQAISkEBBCSgyCtowFksCEpCABCRQdgKKjLK3oOWXgAQkIAEJFJSAIqOgDWOxJCABCUhAAmUnoMgoewtafglIQAISkEBBCSgyCtowFksCEpCABCRQdgKKjLK3oOWXgAQkIAEJFJSAIqOgDWOxJCABCUhAAmUnoMgoewtafglIQAISkEBBCSgyCtowFksCEpCABCRQdgKKjLK3oOWXgAQkIAEJFJSAIqOgDWOxJCABCUhAAmUnoMgoewtafglIQAISkEBBCSgyCtowFksCEpCABCRQdgKKjLK3oOWXgAQkIAEJFJSAIqOgDWOxJCABCUhAAmUnoMgoewtafglIQAISkEBBCSgyCtowFksCEpCABCRQdgKKjLK3oOWXgAQkIAEJFJSAIqOgDWOxJCABCUhAAmUnoMgoewtafglIQAISkEBBCSgyCtowFksCEpCABCRQdgKKjLK3oOWXgAQaEvjll1/i559/jp9++qnh934oAQnkT0CRkT9j7yABCfQhAcTFd999Fx999FEMGTIkHT/++GPwuUkCEuhbAoqMvuXt3SQggZwIZOLik08+iaeeeiouu+yyOProo+O8886LL7/8UpGRE3ezlUBXBBQZXdHxOwlIoNAEEBaZuPj000/j2WefjQEDBsS+++4bSy65ZMwxxxyx4447xscff5xcJ4WuTJsVDjcWFiZeO7My4e4a3jlthq101VVklK7JLLAEJJCJCwaob775Jp577rm4+uqrY+edd4555pknpplmmlh88cVjr732ijvuuCO+/fbbTgcyabaGABand999NxCHCIlG6Ysvvoj33nsvPvvss07PaXSdnxWHgCKjOG1hSSQggSYJMMPFBYK4uOaaa2LTTTeNqaaaKqaccspYYokl4tBDD42HH344vv/++yZz9LS+JnDdddfFUUcdlcQhQqJRGjhwYHJ53XjjjUmMNDrHz4pNQJFR7PaxdBKQQA0BxAWujyeffDIuvvji2HzzzWOGGWaIWWedNZZbbrk4/PDDY9CgQSnok+DPzszwNVn6tkUEtt5665h22mlj+eWXj1tvvfVXpcB6sdJKK8W4444bO+20U7zxxhu/OscPik9AkVH8NrKEEmh7ApjTme0OHjw4Tj311Nh4441jgQUWiP/973+x+uqrx3HHHZfExZtvvhlff/214qIEPWbDDTeMeeedN+acc8446aSTfmV1QngsvfTS8Ze//CW23HLLeP3111OtcI89//zzcdttt8VNN92UBAqiE7cLCesVbpjHHnssPv/887j33nvj5ptvjttvvz1eeeWVtPIIVw3xO/SX2kTfefnll9O9tILVkun5e0VGz9l5pQQkkCMBrBCIi3feeSeJi9NOOy25RYi1WGyxxWLttdeO/v37p0Fk6NChxl3k2BZ5ZI3IWGeddVJbEjuTiYjsXtttt11wTDzxxB0iA4Hx+OOPx/7775/ib3bdddfYYYcdYs8994w777wz9QHEBuIDKxevBx10UOyyyy6xySabJDGK0Hj66afjyCOPjDPPPDO7XXrF/XbMMcfE5ZdfHl999dUw3/lHzwgUTmTwYEFNYiqjs3jIwD7QXn2AWeb7778fL7zwQho4WIa67rrrpsFowQUXjDXXXDMOO+ywwF//zDPPJNdIZ32E5wiDBW4WXSc9GyTyugqRgYUCkcAKoCuvvDLdimBe+gAuMJYfzzXXXB0ig37B0uT11lsvLrzwwiQiOGeFFVaIAw44ILlUsHhhGZlgggmSwLjqqqvi2muvTYJllVVWiSuuuCKJDIKEl1122dQ/sr5BXvS1c84551eWlbw4VD3fwokMZi6PPPJIeoAQLe4hA/tAe/UBBhse9gwaq666aoq5GGeccWLqqadOgwKz15NPPjkNFsPrGwQXPvDAA8lEng0kVX+ol6V+mcg466yzYvfdd4/99tsvTTCxVmCBmH322eOhhx5KgbyZu4QN1m655ZYkMhknXnzxxXjwwQdjxRVXjA022CCdj6sEC9c//vGPJEQQLMTnIC6wgBG3gxDB7UY8D/dg3GEFErEfG220Udxzzz1lwVj4chZOZNAZeIAQLc6MxUMG9oH26gPEWOCLn2666WK00UaLkUceOcYYY4wkMlg5wvfN9gkGDFYwYNFQZBRrPMpEBrEVtBHuDWItPvjgg/R+m222STETWBsykcGS1kcffTROOeWUOPvss+P000+Pc889N5ZZZpnUL3CZZCJjvPHGS1YurFgkxATnsYfKDz/8EPfff38sssgi6W8EBm6U1VZbLVk/OlvtUiyC5ShN4UQGjX3ssccmfytRxx4ysA+0Vx9gUFl44YVj+umnj7HHHjsJjL/97W8x2WSTpc21GBgYLJrpF2ussUYcfPDBye2qyCjWoJSJDCxNLEPedtttk3BAaGC1wgqFqKgVGa+99locf/zxSQwceOCBySqB0GDjNaxetSIDd0ltIg4Diwcig8RqFd7jlvnwww/joosuirXWWisuueQS9+SoBTeC7wsnMvDHEd3LGnc6n4cM7APt1QeYYbKy4IILLkizSgYQNtfCtI24wKx+6aWXptUF9913X1pVwrLVRv2E2SuxHawUUGSM4GjRy5fXigysCMTZYKHCrUF7s/KD8aBWZLBfxvzzz5+WKxMA+uqrr8bbb7+dAkhXXnnltPFaZskYnsgg9u+uu+4KLB5YU4jFoG8hRky9R6BwIqP3qmZOEpBAmQlg5mYJIj54Zq1LLbVUzDzzzOmVwQC/PaZ1gzrL2cq1IoM4DEQly1n5nGBQPiPVigyCPrFwEbRJwr3Ojq5zzz13cn0gTpsVGVyPW4TVSqw8Yc8OrBls8mbqPQKKjN5jaU4SkEAvEsDygIBgsGHgwBSOK5UZJ7PZRRddNAXqYdV46623tFb0Ivu+yKpWZNDOWKKIiUBEsLcFwZikWpHBOSx7ZZURK0hYeXTIIYekz3CxEUB6ww03pMDP4VkyyBtBQZAxy2Rxw2ERoyym3iOgyOg9luYkAQnkRACzOQMCfnRmqwQKEtTJwMCKgT322CPtbfDSSy+5GVdObdDb2bJHBQM8rhISQpFlqbQlbZ25txCWnEfcBEtYid/A0sHeGuyBwfLU66+/Po444ogUo8HGWxwsi61NuF9OOOGEtGIx+xw3Gu4RNvzq169fsN+KqXcJKDJ6l6e5SUACORKoFRssM2QAYlUCJm/iNTCjY3Zn/wwGKmelOTbGCGbNJmtYqDK3CAM+7i+CO2sT4gC3BitCsG6wJJXgUHZ/Jd4G8cHqIQQCMRrkwdbzmXjJ8sK1gpDhfBJ9g7zOP//89Js3xGew8MDUuwQUGb3L09wkIIE+IMAAwSZb7BJJ8Ce7NPJbGGy2RAAgYoPZL3spMABxfjYz7oPieYucCdCWiIaetimbtxEUzB4dbOzFjqCIFEVp7zecIqP3mZqjBCTQRwQYZJgBM0AgNvgNk8022yytPmC5IpsrDRgwQBdKH7VHWW6DFYVN34jhwK2CVSSzqJSlDmUppyKjLC1lOSUggS4JIDYwrRM0iNggsBCrxt57753M585Su8TXVl9i3WIJLFvTY9HATdJTq0hbgetBZRUZPYDmJRKQQHEJ4LfH786vcBIUSKAgrhUHkeK2mSWrLgFFRnXb1ppJoK0JECTKhkvstWFMRlt3BSvfQgKKjBbC99YSkIAEJCCBKhNQZFS5da2bBCQgAQlIoIUEFBkthO+tJSABCUhAAlUmoMiocutaNwlIQAISkEALCSgyWgjfW0tAAhKQgASqTECRUeXWtW4SkIAEJCCBFhJQZLQQvreWgAQkIAEJVJmAIqPKrWvdJCABCUhAAi0koMhoIXxvLQEJSEACEqgyAUVGlVvXuklAAhKQgARaSECR0UL43loCEpCABCRQZQKKjCq3rnWTgAQkIAEJtJCAIqOF8L21BCQgAQlIoMoEFBlVbl3rJgEJSEACEmghAUVGC+F7awlIQAISkECVCSgyqty61k0CEpCABCTQQgKKjBbC99YSkIAEJCCBKhNQZFS5da2bBCQgAQlIoIUEFBkthO+tJSABCUhAAlUmoMiocutaNwlIQAISkEALCSgyWgjfW0tAAhKQgASqTECRUeXWtW4SkIAEJCCBFhJQZLQQvreWgAQkIAEJVJmAIqPKrWvdJCABCUhAAi0koMhoIXxvLQEJSEACEqgyAUVGlVvXuklAAhKQgARaSECR0UL43loCEpCABCRQZQKKjCq3rnWTgAQkIAEJtJCAIqOF8L21BCQgAQlIoMoEFBlVbl3rJgEJSEACEmghAUVGC+F7awlIQAISkECVCSgyqty61k0CEpCABCTQQgKKjBbC99YSkIAEJCCBKhNQZFS5da2bBCQgAQlIoIUEFBkthO+tJSABCUhAAlUmoMiocutaNwlIQAISkEALCSgyWgjfW0tAAhKQgASqTECRUeXWtW4SkIAEJCCBFhJQZLQQvreWgAQkIAEJVJmAIqPKrWvdJCABCUhAAi0koMhoIXxvLQEJSEACEqgyAUVGlVvXuklAAhKQgARaSECR0UL43loCEpCABCRQZQKKjCq3rnWTgAQkIAEJtJCAIqOF8L21BCQgAQlIoMoEFBlVbl3rJoESEvjll1/ip59+ih9//DF4z1Gf+Oznn39O5/Da2Xn11/m3BCTQtwQUGX3L27tJQALDIfD111/H66+/Ho8//nh89913DUXGDz/8EO+++248+uij8eGHHyZR0kiMDOdWfi0BCeRMQJGRM2Czl4AEukfg1VdfjcMPPzyWWWaZeOutt5LFoj6Hjz76KC699NJYbLHF4vrrr48vv/yy4Xn11/m3BCTQtwQUGX3L27tJQALDIfDCCy/ErrvuGjPOOGMMGTKkoXj44IMP4vTTT4+pppoqLrnkkvjiiy8anjecW/m1BCSQMwFFRs6AzV4CEugeAUVG93h5tgSKTECRUeTWsWwSaEMCiow2bHSrXFkCiozKNq0Vk0A5CSgyht9urKj5/vvv49tvv00HgbB81qrESqDPPvssHXkH4LLyiBicTz75JNc6w/Tzzz9PgcWt4tqd+37zzTeJP69FSoqMIrWGZZGABEKR0XknYIBl9c17770Xzz//fDqeffbZeOWVV4I4FURHX4sNykR5br311hg8eHBaVtx5DUb8G+JvHnrooRg4cGAgBPJKBBffc889cdlll+V1i17Nl/ile++9N5566qlcuXS30IqM7hLzfAlIIFcCiozGeBnMWbbLwEfQ66GHHhonnHBC9O/fP4466qg499xz0+CLRSFva0JtCT/++OO0wmezzTaLa6+9NvcB7s0334zDDjssVl999fjqq69qi9Kr7xFvO++8c8w333y9mm9emT3xxBNx5JFHxoEHHhivvfZaXrfpdr6FExn850CNYw7zkIF9oP36AHtfbL/99jHddNMFD3pM1vX9gH00jj/++JhiiininHPOiXfeeafheVyH+TjbsKvbT8gCXYB7gGW76623Xiy99NKxzTbbxNFHHx0HH3xwbLTRRrHkkkvGlltuGXfeeWdypfAspd7M9hEovOJi4cg2OqN6nMfBZ9n32TV83lUif6wX3HeLLbZIVpZG+dXfkzwpU3bUlo3PalN92bHa7LLLLmnwp33rE/enXLX14f7kk9Un+z67f6N6s0/LuuuuGxNMMEG6BfnV5sGH5MdnGc8s/6xMWVlq61fPlrJk5agtM+fxXZZndq/avDifc0hYuC6//PJYYYUV4pRTTun4PCtLq14LJzJ4IPAfB5XKfxoPGdgH2qsPzD///DHxxBPHn/70p1hwwQUbPgMWXnjhJEL+8Ic/pKWu7JfRqJ+svPLKccABB+Tuv++LBzjiYZVVVkn7h7A3CIMKEzKemW+//XacccYZ8b///S+222675D5hMMLycdttt6WlwLfccksSKVdccUXa6CyzAjBIMVjff//9cfXVV6eB6qabboqXXnop5d9V3RA+J554YiyyyCJx3333pQGRwRBh+PDDD6f8LrzwwrjqqqviwQcfTDEDWX4ISFw+Tz/9dNx8883Bedyfv2sTooLvWao8YMCAZDXZYYcdOhUZDNi4OigPg+5FF10U1113XRKsuFpIfM/M/+WXX07uhSuvvDKdhwsGKwB51IsM8qO8GTfygT37uvAdQiUTBFn5yQcBfNdddyW3C3XkHrDlWhJth4uDzxDYWZlpA64lD1J2r4zVNddck5h++umn6XvuTX0Qnfz/wIVVhFRIkdGvX7+k1DFTecjAPtBefWDWWWeN8cYbLxAQc8wxR8w777y/eg7MOeecMdlkk8Xoo4+e9sqYa665Gp63+OKLx+677x6Y9LMZXxEevD0pwxFHHBELLbRQmoRlg2WWDzNaBhX2F1luueXSQIVwuOOOO9I1CIE999wzWRxWXHHF2G233eKRRx5JlzNoMoBvvfXWse222yaRstVWWyWXBFaKrhKxEVy35pprJtGTnYsIQgisv/76sfnmm8fGG28c5MkAmiXqs8cee6RBkddNNtkk1l577VSGN954I7UXIomN2TbYYIP0PfXbe++9Y/nll+9UZLz//vuBkOKeWFg4yJt7ELOA+KJeuEIYkI877rhUVixEbAB30kknBXnUiwysJ7giEANZQpDAFqsSoq9eZAwdOjRZ2rKywICyUIcnn3wylQUxQXsccsghqW0Rieuss04SzRdffHESRJT5scceS+XlXuSz0047pfsizCgviTIgxKaccsok7LJytvK1cCID1UYAC8qORvaQgX2gvfoAD00e+JNPPnnccMMNaXZX3wduv/322GeffWKiiSZKsQnMJJkF1p/Hg5yZJg/p+gGglQ/e7t6bwYPBHAGBRaNRQkQRl4FFh8GTGS5BiwgxWMEMRny31FJLpVgOuGBRmGWWWWK//fZL8R7M8BEduAoYmLFKdJawACAwDjrooGFOQUDsuOOOwSDJs5w2RUBw3ywhPmabbbY0WDLTp2wM8DPPPHOyamAZ4HrM/wzKgwYNSsKIQX3aaadtKDIYPxBWlIkYkQceeCCee+65xAEBgUhgF1msAQsssEASYAgSBnDKgABDGHEdfanWXXLMMcckSxHXIupIXMO94MS9a/sYf8Of7xEoCBssIeeff34q+8knn5wsTeedd176m3pinYA/bYVFD0FB2RBdMEU00zbkg6UItyL/V7BSkbg/4hGLFtcWIRVOZBQBimWQgARaR8DAz1+z5/dZNtxwwzRgMWh3lpjFMhAxG0ZkMEiPNNJIaVDFtYGoQLgtscQSaYbPOcR5jDrqqCmIFAHDAIslYrXVVkszewb/zhKiAOFw9tlnD3MK90Dw4BpgcMVdwmCI9SlL1AcL1KmnnpqEDGUjqJXPsGbjCsLagMsLIcDfHJzDIIqFsz4mAwsPgzcWMOrF+Qy8zPQzfnfffXfceOONgTWMPBAdCBqEHJYc4l0Y7OtFBoP/PPPMkywfuDGwAJ111lmpLFgj6hMBuIg72gOe/A4PiWsRgptuumliAzvE1qqrrppEBwKGvPkb0YOAQHTQHggj8kJgIKzJf/bZZ091hh8JSwsCizYuQlJkFKEVLIMEJNBBQJHRgaLjDQMWZvY11lgjzXQ7vqh7w+qORRddNA2WtSKDgS1zFzFYEtvBLJ14ACwbCBGsEccee2waRHEh4Jxdvf0AACAASURBVKLA+kBMR2cJMUDcDOImSwymDOLkwaoXAnRxeVD2LIiScxn0KQeWgSwxsFP+fffdNwkEziGoFTdHlhhEGaAbiQzqw7W43GrdGlyLq4W8sQRQvrnnnjuWXXbZLNv0iksJAYO1oV5kEBNBWXC/YFV58cUX0yCPCEIE1idcJbQZ9yBQuTbBHvEBN0QGwgphUJuoO7EVCDRiORA41Bmu2YErkPIS6IlIInEvLCfkWYSkyChCK1gGCUigg4AiowNFxxtmt8zqMfkzQGaCoeOEiDQbP+2009KPxjH414oM3meJ4EAGOQ6Wg+KKQGTgDiB49Mwzz0wHy2NZuYPLqbNEUC0DX+1MHkGDGZ/BGBM/Fg2sFcQl1IsMxAIz8iw1Ehn15xAIiuuokchgYN9rr72SJQPBUZsYkIlpueCCCxJDrsdaUJsQGXzOwF8vMjgPHrg1cHEg6BAGxFI0Sgz2CIWVVlrpV0GYWHUQELiRuBf3xIpSm7iWz4lj4X6IIgKcs/bhFXEBYyxQ9SIDC0cRkiKjCK1gGSQggQ4CiowOFMO8wQ2ACRyLAwM5rgDEBgKEWTYzdwZ3BjXM/c2IDDbwwuUxyiijpFgGBkbcB8TFscqDtqh3SdQWCgsFM2ncGVlicJ566qmTKMJVQn4EiDK7RmRQXlwYDKLEZWAVyFK9yGBZLDENiBhiHKgvlhgGegbg+rIR4MteEQywxDJkCT4IE9wPuHIQalzfSGTgkkAYNRIZ8MD6gpsCiwmWjdryZ/fjFesG7YElg7iXLCEGsH5QL8RBVyIDKxFxLwga4nG4hnaGKQf5woP+AFcSMUgE3WrJyIj7KgEJSKCGgCKjBkbNWywKWfAnFguWhCIGMNvjTmDAz4IbsVA0IzIQKgiBCSecMK2SIC/iF3hFOLD0k3iFzhKbghGTgUskS5RrmmmmSa4SrCaUkRk7wgCRwSCJSyVbMVLrCqkXGbhbiJHAyoIFgwBIBt0ZZpihochgoOV7ltSyFQKrUxBSLM9lYMdlwv0RLYiJRiKDeAkCNhuJDFhgKeE66o11pHZJa8aAV2IkCFJFHMApKwvBoogHNhRD1GEdIcizkSWD9iSuhbIgHLgnMSmsJOJAfGCZIRA0SwS6rrXWWr+qW/Z9X79qyehr4t5PAhLokoAiozEeBi1mvsyOmZHjfmDpI3/j+uAzzP3ZDB6RQfDj73//+yQ4slwZrJmBc5AICGVmzmCItQGxwt+4AjDHdyUyGACJ22AlSebCwWXBIEwMBqsu2JmUPBkksXAwMCM8sGRgqUAAZIlZOQMpq0AQQASdUg7yY8km7hnqjIjA3VBvySAfRAQDODxYMYPYoK4sC8XCQ75wZBksg3FtwjqBpYLBm7JwXW2wKucSQ0IZEQrEd3SVaAvyhMX++++fVvTAi7IgFhBbCBqsHTCsTbiJ2C+KwE9icig719HWuGg4yIs2z4JzaQMsKzPNNFNyo9Tm16r3ioxWkfe+EpBAQwKKjIZYkouBAfKZZ55JJvZswEUQMCizkoQZbbaKARcBAyWDMu+zhBmfgY2DxOyfQR+3CfkQCIqfn+8RJLXLMrM8sle+5/4MupjvSQx0uCPIgwGWbc8JHqVsDPgMjlgkKC8DJ++zRBwFsQb8DgqiCtcCggBLBoMpsSbEJ2BlIc4jq2t2Pa+IIiwo1AeRwf1wMVEmrDTUh/0tCKbkqE1YOFgxAjfKAgNEUm3CUoBoQOTRV7tKlI+8sPQgMsiLsmDNQARSFtqTQNPa4FnypI64Urgf59FucKSNsnpRR1xR2TJjBCOWEZZ283kRkiKjCK1gGSQggQ4CPHyzZY8sSWw0yDFoMmgRFMdAx8DS6LyOTCvyhjoycDGYYH7H3I4/HtM53Pgu48BgDyfOy6wMYEBUMDPmIHE+Azq7YHIurhby5PuurBhciwigDbAaMCBmiXZjQM/ywuJAXgyUlJX3lJfBsfYelIO4Cs6nXJQbdwTXkRdChrpTts42WOM68szqg2WFelGmLG4huz9lqE2cQ75woyzcB3dLligL1gssIATGduYqyc6nLAhDyg9TykL9uY4YExLfU6dMKGTXcm8+53sS58OFuiAKyYc6UlY4UTeWHxPngoWjvm5Zvn39qsjoa+LeTwIS6JIAD1MenDzweXjyoK5PfM6Amg1SnNPovPrrqvQ39e2Mz4jUszt5UgZEHktfMeMjDrOBnDJ0J6/hlTmr7/DOq/++t8pAfApBpQziWFTYr4S8m01Z+XkdkdRZPsTRUD4sLGxI1p2yjUh5hnetImN4hPxeAhKQgAQ6JcBMG5cAcRdsdFUrMjq9qIRf4N7BlYT7hziS4Vkx+rqKuFVwJeECqreK9HVZau+nyKil4XsJSEACEug2AQZcBjlcGkWZQXe7EsO5APcccQ7EYRRpEM+KjZsHq1IWG5N93upXRUarW8D7S0ACEpCABCpKQJFR0Ya1WhKQgAQkIIFWE1BktLoFvL8EJCABCUigogQUGRVtWKslAQlIQAISaDUBRUarW8D7S0ACEpCABCpKQJFR0Ya1WhKQgAQkIIFWE1BktLoFvL8EJCABCUigogQUGRVtWKslAQlIQAISaDUBRUarW8D7S0ACEpCABCpKQJFR0Ya1WhKQgAQkIIFWE1BktLoFvL8EJCABCUigogQUGRVtWKslAQlIQAISaDUBRUarW8D7S0ACEpCABCpKQJFR0Ya1WhKQgAQkIIFWE1BktLoFvL8EJCABCUigogQUGRVtWKslAQlIQAISaDUBRUarW8D7S0ACEpCABCpKQJFR0Ya1WhKQgAQkIIFWE1BktLoFvL8EJCABCUigogQUGRVtWKslAQlIQAISaDUBRUarW8D7S0ACEpCABCpKQJFR0Ya1WhKQgAQkIIFWE1BktLoFvL8EJCABCUigogQUGRVtWKslAQlIQAISaDUBRUarW8D7S0ACEpCABCpKQJFR0Ya1WhKQgAQkIIFWE1BktLoFvL8EJCABCUigogQUGRVtWKslAQlIQAISaDUBRUarW8D7S0ACEpCABCpKQJFR0Ya1WhKQgAQkIIFWE1BktLoFvL8EJCABCUigogQUGRVtWKslAQlIQAISaDUBRUarW8D7S0ACEpCABCpKQJFR0Ya1WhKQgAQkIIFWE1BktLoFvL8EJCABCUigogQUGRVtWKslAQlIQAISaDUBRUarW8D7S0ACEpCABCpKQJFR0Ya1WhKQgAQkIIFWE1BktLoFvL8EJCABCUigogQUGRVtWKslAQlIQAISaDUBRUarW8D7S0ACEpCABCpKQJFR0Ya1WhIoEoEPP/wwbrvttjjllFOif//+Hcf9998fn3zySfz0009FKq5lkYAEeomAIqOXQJqNBCTwawKPP/549OvXL5ZddtmYfvrpY6KJJor//Oc/HQefLbHEEnHsscfGs88+G99///2vM2nwyZdffhmDBg2KQw45JB577LH49ttv45dffmlwph9JQAKtJKDIaCV97y2BChL4+eef45tvvklWC8TF1FNPHfPNN19svvnmcdhhh8XZZ58d55xzTnq/+uqrx5RTThlTTTVVrL322nHttdfGRx99FOTRVcIycv7558d///vfuOqqqwLRMbxrusrP7yQggXwIKDLy4WquEmhLAgz0CIBTTz01ZptttnRsv/32cfnll8eTTz4Z77zzTnz99dfp4P2DDz6YRMe6664bs88+e6yyyipx6aWXxmeffdYlvw8++CBOP/30JE4uueSS+OKLLxQZXRLr/pcff/xxvPzyy50etMEPP/zQ/Yy9oq0IKDLaqrmtrATyJYA4GDBgQMwxxxxJNOAqeeaZZ+K7777r9Ma4SAYPHhw77LBDEiVrrrlm3H777UmIdHaRIqMzMr33+cCBA2PLLbeMrbbaquGBGMTqZJJAVwQUGV3R8TsJSKBpAj/++GMSFBtssEGKvTjqqKPi9ddfb3q2+8gjj8Rmm22WBAqCY8iQISnOolGshSKj6Wbp8YkXX3xxiqXB5VV7TDzxxPHXv/419t5773j//fd7nL8XtgcBRUZ7tLO1lEDuBFglgutimmmmiZVXXjleeumlpgM5s8LdcsstsdJKK8UCCywQd9xxRxIoioyMTutfcYUhIpdccslksaJEWQzO0KFDU/Auwb4vvPBCcptlgbxfffVVcpVx/RtvvBFPPPFEitvh+s8//zxee+21eOqpp5JLjX6DiOwqxoY+wYqk7J7kh8Xsrbfe6rCAIXr5G2vLm2++mb4n39rU3Xzee++9VDfuR6Dyu+++O8zKKGKDENbUheOVV15Jq6dq79lu7xUZ7dbi1lcCORHgwbvpppsmkXHzzTenh30jgdDV7XmIs9KE+Axmyp9++mnDVSNaMrqi2Pvf0Y6s4DnooINi1llnDawcxMGQeL3zzjtj/fXXT+024YQTxoILLpgCe5977rkkFnCH7bbbbmk1EPE3//73v+Ppp58OxAfCdIUVVkj9ZooppojFF1889t133yRSOlvaTCzIq6++mgTPTDPNFFhXWKm0xRZbJFcb1yEuCDY+8sgjk4VsuummS7FCtXS6m8+BBx4YiyyySFBHApZ33333JIjgg6i54oorAnfftNNOmw4sQMQnDS/GqLZMVXuvyKhai1ofCbSIAFYILBAczGQ7GyCGVzxiAVg1stRSS6WZYqMZrSJjeBR793sEBkJijDHGSAG3WCSydO+998aKK64YCy+8cJrF014XXHBBEg2ZUMS6seGGG8Y444wTiAxEKLN+xMr888+fxOnzzz+fRCWxHn/+85/jpJNOCoJPGyXuTz4IDCxeBBPfddddseiii6ayYGHgYFUTgoDynXvuucmiUZtfd/PZY489krUFgbPtttum/AlqRmBgwfjjH/8YO+20U7JgUHaWWPP/gdd2TYUTGTyYMDE9/PDD8cADD3jIwD5Qkj7AjHHmmWeOTTbZJJmxG4mDZh6099xzT9o7Y5JJJomrr7467YdR/yy48cYb0yySPTeYXRIoyr4Z9ec99NBDSfBgtu+uVaWZsrbDOQygCIBJJ500WQoYYGsFJEuJZ5hhhrjsssvSYAtnBASriugLbLiWiQyWKjOws8SZ/oHwwD126623JtcYn+ECwd2GS4Z71SfKg2sEwXPiiSemuBCuQwgRB7T00ksn60ityLjvvvtSmbg2Sz3JB4sMfQkLCBYKrC5HHHFEcokgqLCWMHbxPYweffTR2HrrrZPIye7bbq+FExko0r322ispRDquhwzsA+XoA8wYJ5hggjSTY3lqT0UGAwIDxZ/+9Ke0RBUzeH0fIO5jvPHGi1FHHTXdE/N0o/PmmmuuNONkYOtpedptUKivLwKD/UwQkAzuWZwF5zGQ77///vH3v/89DaTM7rNj3nnnjf/9739x5ZVXJpHBKhWsU7UJNwlC5MUXX+z4mNieXXfdNblesIjVJ9wz7Kcy0kgjJQGDYMnSmWeemVw1e+65Z4clA9dbbf7ZuSOaD/u94BbaeeedAzcfomjcccdNFpaMAdYWuM0999zJrZLdu51eCycy6MB0IGZFzFA8ZGAfKEcfwBc9+eSTj7AlA5GxzDLLxPjjj58EywEHHPCr5wD+ffzdY445Ztpbg4lJo/MOP/zwtO8GM2stGd0f2hic99lnn7S0+Kabbkoz9NpccBEgCIix2GWXXeLkk0/uOI455pjkWiH2AksGA++qq65ae3lqQ5bJkk+WiMMhJoOYB4Ir6xPf42ZBZLCPR611goEfFwn3yiwZ/M159WlE82l0rxlnnDHFrWQcTjjhhDSWnXHGGW273LdwIoPZBr6st99+O/nPiAr2kIF9oPh9ALP5nHPOmQYOHuq1JvX6B3xXf/MbJwsttFCa/WF6ZjVCffsTZIqAwISPyZzZdqPzWF2AFYOyKDK6ov7r75idwxZrBIKBvU7qGbIyBBcFAZvEUtS3ExYtgjs7Exm4RZjts1FblgjYxMUwyyyzJFdX9nn2irWbOAxEBi6yWkvGaaedlgIz6RvDExkjmk+tyCBGaI011kjLr3H31XOAZVd7xWR1q+Jr4URGFSFbJwm0AwF87/jXMU+zk2dP4iCIwufhzWZeG220URIIjdwcBn7m26Ow/CAall9++XQg9uoHTgZxBATbus8zzzwpuDETIlxP3AxWKYRIZyIDtwb3IHiSOAb6DC4Z3AtZbE99TRGMLHP917/+le6Z7dVBebCqYOFChAxPZIxoPvRTVppg6aGOxx13XNofhs3o+JtEfOF1112XglLr69Eufysy2qWlracEciZAkB6uLczcuDt5+HfXmsGPnTGLRWQwK2UQq589Uw1FRr6NiZtivfXWS/EuxE2wdLX+wBWARQl3CIM7KztYVYJbBavWaqutln5tl37QmchgxQpiYptttkmBowSP4vZi1cj111/fsUy2vrZYu3HPELuDK+KGG25IS58RuSwrJa4D6wGBmZ25S8hzRPJBZHB/Aj8RR3BgpQz14TvKDzN+kwdLULsmRUa7trz1lkAvEyC6/+67704PdQIzmdFh+m5WaHAue2SwfJWBjYc2VgxFRi83VBPZsYqCuAYG6M4O3ANYK7BAIEp23HHHdC5tR4AncTKICxLus+OPPz4FidbeHlcHK4PYz4IgSpbBEkDJIM3A3VmiX2AtQdwstthiabAnjoelolmQJ1Yx/t5uu+3SplyN8hqRfKg7dUbkZAn3DfuFUCZ+XRiBQXwGbrt2TYqMdm156y2BHAgQS8UvrbLyg1ke+yEwW0RoNBILFIEHPebliy66qCMWgwEJ0dFZ0pLRGZnWf05bNissa0uLqMBy1ZNEfEVvxDwULZ+esCjaNYqMorWI5ZFAyQlgHufXVNmYiI2IMIEjChATjRIDCxsv4SJhn4GDDz44mbobnZt9psjISPgqgWITUGQUu30snQRKRwDzOb9FwY+dsaEW+2cst9xySUiwOyRuEH7XgeC8/v37J/M4lg8EBqsCWM44vJmwIqN03cICtykBRUabNrzVlkBeBHCLIBJwnWDFYEvniSaaKK0G4DcmJptssnQgPsYaa6yYeuqp00+JE8PBksfafQ86KyOBfewGSqAfLhmsIZ1ZSjrLw88lIIH8CSgy8mfsHSTQtgQQA6wYYZkjbpCNN944rTpgB0mC/Y4++ui0xI8f0iJQr1mhgLWEJYr8PDxWDYRJZzEfbQvfikugAAQUGQVoBIsggaoTICiPCHtWG/D7IuyjgcsEgUDAnwKh6j3A+rUrAUVGu7a89ZaABCQgAQnkTECRkTNgs5eABCQgAQm0KwFFRru2vPWWgAQkIAEJ5ExAkZEzYLOXgAQkIAEJtCsBRUa7trz1loAEJCABCeRMQJGRM2Czl4AEJCABCbQrAUVGu7a89ZaABCQgAQnkTECRkTNgs5eABCQgAQm0KwFFRru2vPWWgAQkIAEJ5ExAkZEzYLOXgAQkIAEJtCsBRUa7trz1loAEJCABCeRMQJGRM2Czl4AEJCABCbQrAUVGu7a89ZaABCQgAQnkTECRkTNgs5eABCQgAQm0KwFFRru2vPWWgAQkIAEJ5ExAkZEzYLOXgAQkIAEJtCsBRUa7trz1loAEJCABCeRMQJGRM2Czl4AEJCABCbQrAUVGu7a89ZaABCQgAQnkTECRkTNgs5eABCQgAQm0KwFFRru2vPWWgAQkIAEJ5ExAkZEzYLOXgAQkIAEJtCsBRUa7trz1loAEJCABCeRMQJGRM2Czl4AEJCABCbQrAUVGu7a89ZaABCQgAQnkTECRkTNgs5eABCQgAQm0KwFFRru2vPWWgAQkIAEJ5ExAkZEzYLOXgAQkIAEJtCsBRUa7trz1loAEJCABCeRMQJGRM2Czl4AEJCABCbQrAUVGu7a89ZaABCQgAQnkTECRkTNgs5eABCQgAQm0KwFFRru2vPWWgAQkIAEJ5ExAkZEzYLOXgAQkIAEJtCsBRUa7trz1loAEJCABCeRMQJGRM2Czl4AEJCABCbQrAUVGu7a89ZaABCQgAQnkTECRkTNgs5eABCQgAQm0KwFFRru2vPWWgAQkIAEJ5ExAkZEzYLOXgAQkIAEJtCsBRUa7trz1loAEJCABCeRMQJGRM2Czl4AEJCABCbQrAUVGu7a89ZaABCQgAQnkTECRkTNgs5eABCQgAQm0KwFFRru2vPWWgAQkIAEJ5ExAkZEzYLOXgAQkIAEJtCsBRUa7trz1lkBBCfz444/xxRdfxIcffhg//fRT/PLLL90u6ffffx9vvfVWPPDAAzF48OD49ttve5RPt2/sBRKQwDAEFBnD4PAPCUig1QQ+/vjjuPfee+PCCy9MYqM7IuOHH36Id999N+6777444ogjYpVVVoltttkmCZaff/651VXz/hJoOwKKjLZrcissgWITeOGFF2LXXXeNGWecMYYMGRLNiAPExXvvvZcsFwcddFD897//jfHHHz/mnHPOOOCAA+KTTz5pKp9ik7F0EigfAUVG+drMEkug0gSaFRlYOHCnfPPNN/H888/H3nvvHdNMM0386U9/illnnTUOO+yweOWVVwL3i6l5AjCFWXY0I/Kaz90z242AIqPdWtz6SqDgBJoVGd99910SF7vttltMMMEEMfroo8ccc8wR/fv3jxdffDG++uqrHsd0FBxRrsXDevTQQw8ll9Vjjz2WLES53tDMK01AkVHp5rVyEigfgeGJjC+//DLuv//+2HnnnWOGGWaIMcccMxZaaKE48cQT4+GHH44PPvggcJ90J5ajfJR6v8QIig022CC5qRZccMFYbrnlYt55503Cbccdd4y3335bl1PvY698joqMyjexFZRAuQh0JjI+++yzuPnmm2OLLbaImWeeOSaddNJYeuml4/TTT49HH300PvroI8VFD5qalTiPP/54il9ZccUV45xzzokHH3wwMb399tvjqKOOivnmmy8JOeJecKeYJNAsAUVGs6Q8TwIS6BMC9SID8XDdddcFs+n5558/zbRXWmmlOOaYY+Kee+4JVqP0dKlrn1So4DdhqfDGG28cU089dVx22WUpSDYrMhahN954I0499dT485//HGeffXb6HmvRVVddlc6//PLL0woerCC00UsvvRQIFxJWpzvuuCMF326++ebpvGOPPTZZRTqLlSEG5Ouvv45zzz035Ue+2223XVpt9Prrr3fky+qju+++O84777zYYYcdkgDNyl3/etZZZ6VyXH311YF7bdNNN42jjz46Xn311eQW2nbbbWP99ddPrjbie7IEm4suuigo+3rrrZeugwWxPiTqh2vpuOOOS5z22GOP2HDDDWPrrbeOa6+9NhDGuO4oI2WtTRlDhDNLtquaFBlVbVnrJYGSEshExhRTTBGnnXZa7L777mkWPdNMM8Wyyy4bhxxySNx5553JcmFQ4og38tChQ2OsscZKAyl7i9QnGDO4zz777LHWWmulwZQ2YuClPfbdd98UdMtS4emnnz4F3DKAkm688cbYcsstY5NNNknnMQivuuqq6XyWGjdKxNJcfPHFyUpFngT0MmivueaaSVgysJM/+ayzzjqx7rrrpoPBurO0+OKLp+XMe+21Vxx44IGx0UYbxcILLxzbb799Khd12GqrrWKRRRYJRBDiAvF65ZVXxlJLLRWIkH322Sedw98IjU8//TSV48wzz0wBx/RL8qG/LrnkkukeLMVmnxZYkX9twkpEOY4//vgkqmq/q9L7wokMlDOzE9QjqtlDBvaB9uoDPKyXWGKJ+Pvf/x6zzDJLCugceeSRY5JJJkmDCYGdPNib6RcXXHBB3HbbbWkFijEavx66eN7iKhlppJGSm4SBs1HCmoRYYFkxM/2nn346cK0Qu4ElgwEZiwcDP64sRAjLhhmcsTohALBOvP/++8m99e9//zsJRTZJq00IGvKZa665kqB54oknIgvwxdqy/PLLxyOPPJL2QsGFM+GEEybRwL4olKGzhPiZcsop04COgMD6sNpqq8W//vWvFMtDvRFY7KuC5YT4FP6mj2222WapTJTttddeS/XmMxgglOiPrGgiRujNN99M1o2TTz45CRYEBFYPxAdloIyZMKafr7zyynHFFVd0VuxKfF44kYFKxefKA4WHjIcM7APt1Qd4YP/ud79LAx+D329+85sYbbTR4i9/+Uu3nwf/+c9/0gyYWILs4V6JJ3cvVYKBnxk1nHFJ8fxtlBiEGSj/+c9/xlNPPdUhMnbaaaf4/PPP0yW8MqjSVggX4jqImcH6gdBjVp8dtCWbpdVbThAdCAbKM2DAgGHcCFgPFltssWTNYHBHZEw11VTx3HPPNSryMJ8xwGN1YQJLwnrDIM9eKlhOMgG65557JncHljKWRuNOoezUJSs71hPqxDmZyECsIECyeBXOxXoCM/K5/vrrkzsKQYErCffI2muvndxBL7/88jBlrdofhRMZdLIzzjgj+e7wbXnIwD7QPn0Av/gyyyyTgjp///vfp5UjY4wxRow77rgx3XTTJbcJs2XOa6ZfMPvGX45vPBtIqvYQH5H6EBfBjJxBnXiMTDDU58kMfJdddonxxhsvnZ9ZMhhEs8Szm4GX9kJkEP8wzzzzpMGVNqs9sHbgfshiG7I8EDO4SigP98hiO/geqwLCAutIJjL4u5lBGpGBuwXXBSkTByx9rk21IgPxgbhASCEssHzgmiGvFVZYYRiRUZ9PPR+sP+TBih3ypRyIHlZEYampciqcyKgybOsmAQkMn0AWkzHxxBOnnT95qDPzZRbNg/6GG25IZmcGIIXD8HkO7wziLbAcIRgYfOuZ8jfLV3FhEceAMKgfRLlHvci49NJL04oVBCEWhMwSkL0iDrCk1CZEBtchMrAi1AaHEryJqCDIsyciA8H5zDPPpNs1IzIGDRqUXD2TTz55CjolcPOdd95J1gfqVGvJGJ7IwN2ESKIfE0/CrrQEn2IlqXpSZFS9ha2fBEpGIBMZ7IFBZD5+7pNO7yLVGAAAFn9JREFUOinNiv/2t78lqwYzSVY31A9SJatqIYrLoLf66qsn1wOxCsRp1CZcKDfddFP89re/TfEHxDQ0IzKIpyCGAgsIFpJsB9HstdGKIO5NPAQiY+DAgcO4b4hzIOgSS3dPRAYClR/MIzUjMrCo4I7BuoGgpWzUAxcQrpDuiIwsngP3DOWfe+65kxUD0VL1pMioegtbPwmUjEAmMrLfLmFQYqDD533++eengWacccYJggfZhIsgUGbAxlz0rKEZPLEa4ArBvYGgow0QHwz4hx9+eAqaZHUJgzPioBmRwcDMAM2KDQL5SbgGGOjJiwDOekGD1YQ4Db7HvcHuoyTcL4gExCX9oCciA3dNd0QG7h62p2dlCAmBwVb1bF2PRQfh1ZlYacQHlxNLfAlmnmiiiVKcRhbDkW5Q0X8UGRVtWKslgbISqBcZmXjggcyDmgEHYcFKAAZGNuXCv81yV0z/iBJT8wQY2GF26623pv0y2IuEH5bjmG222TriIHBzZGwbDaL17hJKwA6sxFAwc2dgZjXFoosumtxgWKiytq0tLflwL5aBUhbiGBCTiA6sV4iXbAkr3zcTk8EqGGIiuiMysKKx5JVFCJSFcu+///7poC58dsIJJyTrzvDcJdQvE1gEslMWGLZDUmS0QytbRwmUiEBnIiOrAmIDkz0DximnnJJmuKwiYR8Nov75jDzqZ8nZ9b42JsDgzc6pDOSY9BFtbIjFjJ5YBr7P4jVYnsomWwi+LNEuzOyxNiEGSQQ5cg5BpcQksCkVS15pn84CHrkH90L0kBc7kPKK8CC2gZQJEfbh6CxYNZ34//9zyy23pOsRJyRWfDz77LOpLLXnUX9Wt1APzmHlCmVm7wzKgAsIUcOSXDhhjWmUTyM+CDRE8B//+MdgaTXntENSZLRDK1tHCZSIwPBERlYVZsEMMAToYdJn3wb2QsDEzT4GDGoMjoqNjFjzrzDLrBbNX9X1mbRXZ8KiqysRHL1dlq7uV/8d5cYdlwms+u+b+Zs82COEZbP0zyeffLJjuWsz15f5HEVGmVvPskugggSaFRm1VWfWyUyXqH0C8xAbLJNkx0i2dyZAdEQGidp7+V4C3SGAVeeuu+5KQphNxti8C0tcuyRFRru0tPWUQEkIsOMjKwlYJojZmllgs4mZMsGKzBhZiUCQHS4UN+NqlqDn9TYBAlVxtxBD1K9fv+RKaoeAz4yjIiMj4asEJFAIAvjbCQrE1YFo6IkFAhM7vnL86eyyyOqUnuRTCCAWQgIlJqDIKHHjWXQJSEACEpBAkQkoMorcOpZNAhKQgAQkUGICiowSN55Fl4AEJCABCRSZgCKjyK1j2SQgAQlIQAIlJqDIKHHjWXQJSEACEpBAkQkoMorcOpZNAhKQgAQkUGICiowSN55Fl4AEJCABCRSZgCKjyK1j2SQgAQlIQAIlJqDIKHHjWXQJSEACEpBAkQkoMorcOpZNAhKQgAQkUGICiowSN55Fl4AEJCABCRSZgCKjyK1j2SQgAQlIQAIlJqDIKHHjWXQJSEACEpBAkQkoMorcOpZNAhKQgAQkUGICiowSN55Fl4AEJCABCRSZgCKjyK1j2SQgAQlIQAIlJqDIKHHjWXQJSEACEpBAkQkoMorcOpZNAhKQgAQkUGICiowSN55Fl4AEJCABCRSZgCKjyK1j2SQgAQlIQAIlJqDIKHHjWXQJSEACEpBAkQkoMorcOpZNAhKQgAQkUGICiowSN55Fl4AEJCABCRSZgCKjyK1j2SQgAQlIQAIlJqDIKHHjWXQJSEACEpBAkQkoMorcOpZNAhKQgAQkUGICiowSN55Fl4AEJCABCRSZgCKjyK1j2SQgAQlIQAIlJqDIKHHjWXQJSEACEpBAkQkoMorcOpZNAhKQgAQkUGICiowSN55Fl4AEJCABCRSZgCKjyK1j2SQgAQlIQAIlJqDIKHHjWXQJSEACEpBAkQkoMorcOpZNAhKQgAQkUGICiowSN55Fl4AEJCABCRSZgCKjyK1j2SQgAQlIQAIlJqDIKHHjWXQJSEACEpBAkQkoMorcOpZNAhKQgAQkUGICiowSN55Fl4AEJCABCRSZgCKjyK1j2SQgAQlIQAIlJqDIKHHjWXQJSEACEpBAkQkoMorcOpZNAhKQQB8S+Prrr+Orr77q9Pjxxx/jl19+6cMSeauyE1BklL0FLb8EJCCBXiLw0EMPxR133NHp8eGHHwZCwySBZgkoMpol5XkSkECPCHz//ffxwQcfxHPPPReDBw+O++67L+6999544IEH4uWXX47PPvssDVy9PUP+7rvv4qOPPoqPP/44fvrpJ2fgTbTescceG7vtttswx4477hgbbrhhrLfeevHss88GXE0SaJaAIqNZUp4nAQl0iwAz3jfffDPNio855phYZ511Yr755otZZpklHf/9739j8803j3POOSeYQb/33nvxww8/jLAY+Pbbb2Po0KFx2223xcknnxwXXHBBfPHFFyOcb7cqX9KTzzrrrDjkkEM6jgMPPDA23XTTmGSSSWLKKadMIgPR+PPPP8c333wTn3zySbz//vup7XjPd5lYzFwvX375ZYfYy7DwGVYR2pzrEZpdiRfy5H4IRq5599130/V8RllItDv5cnAewrazxL24J9dQbvKjHJSZzz799NOOspFfbWpUDlxMWaLff/7558nlRL/L+CB4s/7N5+TL31miHpSLslfJLaXIyFrYVwlIoFcIMCDw8Hz11Vdj//33jxlnnDH+8Y9/xNhjjx0TTTRRTD311OmYcMIJ02f//Oc/Y7HFFotTTjklXnnllfSgzQaq7hSIAY4H9IMPPhh77rlnEjL/+c9/YuWVV04DRjYYdSfPdj4XXgy+5513Xiy00EKx3377pQEYJgzGTz/9dFx99dVx9tlnx5lnnhkDBgyIF198sWOAfOqpp2LQoEFx9913x6WXXprOpV1pJyxZF198cZx++ulx7rnnxo033hgvvfRSp64YBn7ud8UVV6RrTj311Ljooovi8ccfT2UhX+6NlYzjqquuSuXurP3om9ddd10STQMHDgzyoywPP/xwPP/886k8p512WiC6KH826PNKvSgH33MdIharXGYtQ0zccsstqR9ST/Kgb1944YVJ/ML1/vvvj3vuuSfeeeedjiIiMCjXJZdckvox+VUhKTKq0IrWQQIFIoDAeOGFF2KJJZaIv/71r2kWvNVWW6UHK4NTbeJBy0wZwTHuuOMGpvlnnnlmmBle7fldvX/yySdj5513jsknnzzGGGOMmHnmmeOoo46Kt956K812eyJcurpf1b9jpo1wWHXVVWOjjTZKloNMqD322GNxwAEHJBfKxhtvHOuuu26sv/76yc2ChYIBEgvVNttsk65dZZVVUtsgMBAGa621VqyxxhrJuoUrhuPoo49ObdWIKwM/VpWVVlopXYNVjPf0q0ycnH/++bHJJpsk69jqq6+ezmuUF58hQuadd94kgvfYY49UdixrW2+9dbLi0I/WXHPNWGqppYK83njjjdSHeN13330Tk6wOyy+/fGywwQZJkMEHMUTd6NcIM75bbrnlkhUPYYKY6NevX/oea1uWsLycccYZQTlef/31TgVXdn5ZXhUZZWkpyymBEhBgcHnttdfSwxnLBQ9YZqlvv/12mgVng1RWFWaozPyYGS6zzDIx1VRTxQ477JBiNZqZyfHAZsBjsJl22mljnHHGiQUWWCBOPPHEJFYwe2ezUEVGRn34r7BHAG6xxRZpkH300Uc7ZupczYCPcGBQHDJkSGov3uNWuemmm5IrAEvDIosskgZk3jP4IkAQLFhGGOi5FgGxzz77xAorrJBm+/Wlo/1weyEqjjjiiDTbxw1Hn5lssskCcUG+tPlss80WDPpYVx555JH6rDr+xnoy5phjpjpgvcClgWhCmCJgbr311lQnrDjTTTddKhcCCSvZLrvskqwYWB04qDfWOqw6CGzui1uQul922WXpHFgixCgfrhLqvvDCC8fxxx/fYR0iZgnhguWtSu49RUZHt/ONBCQwogQQGNttt11yj/DKQxn/dL24qL8Ps2Ye7Mwa55xzzjj44IPTg7/+vOxv3CI333xzbLbZZsn18q9//SvNFnngP/HEE8nPnomL7BpfmycAw+233z4Netdff/0w8RKIQmbmDJIM7LQDwgK3AEJvp512SqISd8jiiy+eZu3EPzBIEysz1lhjxWGHHZasFogZBmYEA6IFS1Z9QgDQzgz+DOBcQ3+iX80111zJeoGAYcAm3oc8EJcI0M4SIgTL2V577ZUGeQQo9UAEYH3IgpHpv4jWgw46KJ1HPMgNN9wQ11xzTeqv1Jt4I8QJ1glEM6KFcmUc6Ie4RbCqjTrqqKlsiG4sJdtuu21HMC39f9ZZZ00CBFZVSYqMqrSk9ZBAiwnw0Me8Psccc6QH81133dWUwMiKzfUMVAsuuGBytRAMyoBSa4FgwGHGiFmbB/kUU0yRBjzM0PjFMTkzaNVek+Xva3MEcAkQ/MkgCFcCI2sT7ixm6rPPPntygRx66KHBQfwNs3DiYRhUERkIB/LIEm6A3/zmN3H55ZenvpF9jttg7bXXTpav7LPsFdcbLhvanEG+NhHLs+iii6bYD0TG3HPPnawstec0eo/IwEV3wgkndHyNoMBVgRjIRDGuHfLHRYKAwOqCqOBvGHEu7hYsGdk5mcg4/PDDO9x+iGKsIiONNFISGfRR3ENYLq688sokyk466aT0/wYBkt2/o3AlfqPIKHHjWXQJFIkAy1H33nvvtAqBh3fmm+9OGRlQeGgzo+RhjoUDwcCD99prr00+f0ztzBxXXHHFOPLII+POO+/UctEdyF2ciwWAAEiWqzJIEohbnxho559//jT44sZA9HHgAkBYEPSIuZ/3CBUG9CwhMkYZZZQU3Ii1IEvM4olj4L71iX612mqrpVk/fao2IQCWXHLJJDARGYgfBv/hJco08cQTp4DV7NxMHPTv3z/7KMWP1IoM+jWChz5KMCuuQKxn008//a9ERm0+cIVHJjK4AcGfxLFQXuqP5W/33XfvcO91FKLkbxQZJW9Aiy+BohAgkh4zOjNczNo9sSgwW8SPzYyUWR7BnJjrmSXysMcczj2ICWDTKAYqZn1aLka8F7A0E/M/g/2WW26ZVlXAF6GXHQTu4i7BYsFgi6DAuoCFifgKrFdYQjD3NxIZxFJMMMEEKf4BawftxrmsqEA0EnBZnxAWxIYQ34NbhISFi3LQ17BwEM/QXZHBSidEUpaaERmwQeQiUggops6sLkGwYMGBYaN8GokMrBuIcpZx47ZBSNGnq5YKJzLoPHRSlglhqvKQgX2gHH2AhzwWBkzkxGbwf7kniQctZvAZZpghDSC4XxiYWPrKg5hlgwgaAj6H1zd4jhCc1xPB05Oyl/kaBnCCExFyrApB7OH+qj3gzp4QWJCIkSAmg6BQYjgQHAyaWB46ExkIA4J0ESjkS/ux5JTryA83Sn0ipgFXAmXjlXtxHUtCid9BzJAv3+Fqa8aSQeAnQaq11oZG4oD71FoyWAXDqin6IP2POhPDMc000yQrDGKH+uDKq827kcignlh/sPZgGSLvWutOPYey/l04kcFMBh8eShrTmYcM7APl6AM84HlwM0Bly0Z78mDkIb300kvHaKONlszLv/3tb9NMkYc9M0kGm2b7BAGDuF14eGvt6Lo1GPRxNxCXgJiDXf2BCwWrBQM9wZDMwonFIJCTnUIZKBGYiDryI7CxVjgQjEnsDNdhtWBFB9fxN7uN0m8aJcQigZVYNLBiEQPCvVjpgahBiOC+yIRIozxqP8P1Rn9if48sYTVjBUvtZ+xwivhBMFB2hA2xI3Ch7JQDwUU9ER+IF/bVqM8ni1di3xbeZwn3IPUgpqM2PiT7vgqvhRMZqGSWsDGLYfbiIQP7QDn6AJtqjTfeeOn/74gEr2UiY/TRR0/+e/zYI488cvB3do9m+wQzTJZMEhBapWC6PAYfAm2Z4DGgdnYwkDMrR0QgNNgL47jjjksWDWI5cJcw4JMYQIlZYKDOEkKPwRqLCBtUZfdBiDSK/8iuI09EAPdDjGBBwXJBfEi2ioT3CBvqMbzE3hpYQLBGZAm3D/Wr/Yx+g7UBYUQZOIe/CfgkcJOgTeqHe5C6EJvCpmD1+VBGeHBOVl5Y4DLC3cPybQJqq5gKJzKqCNk6SaAdCDA7xNSOb31E3CWIjGWXXTYtg0W0/O53v4s//OEPaR8F7sEgp2AoTo/CLdbTJZdcl4mSZmtE22cDdbPX9PZ5xF5gdR+RRN2JgSH2iEDSnjIckTL0xbWKjL6g7D0k0AYEbr/99rQBEUGb+KZ7GpPBds+sLsFlgk8c/ze7M7LR1vjjj5+CDgkUJCBQsdH6jsWMvKeuqJ5c25NrepsS/a6ndaYsxH/gxsO9g9sIy86I5Nfb9evN/BQZvUnTvCTQxgQwV++6665pQyZ819nKj+4gYYkjPnc2JWJDLvzXWC4wpbOzI75u/NpE87N0kdUB/L4GgqaqD+nu8PPcchBAPONeIg4DgcGS36omRUZVW9Z6SaCPCSAq8EmzwgQrBL5tljw2O/hjLuZ6fi+C3SR5+GJKz65nBQF5EjdAYOKkk06aVpywpDX7cTVM2Nn5fVx9byeBpgnwf4VVlOyAipCuskVOkdF0t/BECUigKwJYEwhuYwUAuynyexQEwTXja+Ycft+BSH6WJbIvBhaKRgmxwUZGLJllG3IsGzPNNFNacYJrhZUI+MwVG43o+ZkE+paAIqNveXs3CVSaAGZfdi/EEkEQKEKDQE42HupstoZoYFtpfkETscCSPkTE8ALr2CCKqH+WVWLNwLJBLAe/fskWzoiN7lhSKt0wVk4CLSKgyGgReG8rgaoSYBk6S/vYN4CfXWdzLnzPbP/NwM/KE2IveE90PfsM4CIhDoP9B9jgCAHRncSGUPxCJzEbbNrFvgMsXWXJIy4WLCVaNrpD1HMl0DsEFBm9w9FcJCCBOgIDBw5M7g8Gffar4Bc5sTJg3WCXRCwXCAv2vGBfHH61cvDgwcnVUZdV03+yayVigx1D2RhsyimnTNH7XVlSms7cEyUggW4TUGR0G5kXSEACzRLAFXLRRRelvQAQG/y8Nj/1PfbYY6clqfyKKrt4YvlgY6KeLnutLw+bLWEhwZqC+4VdKjtz19Rf698SkEDvEVBk9B5Lc5KABLogwC6ggwYNSm4TdoZkl0TcInkO/mzahHipXaXSRRH9SgIS6GUCioxeBmp2EpCABCQgAQn8PwKKDHuCBCQgAQlIQAK5EFBk5ILVTCUgAQlIQAISUGTYByQgAQlIQAISyIWAIiMXrGYqAQlIQAISkIAiwz4gAQlIQAISkEAuBBQZuWA1UwlIQAISkIAEFBn2AQlIQAISkIAEciGgyMgFq5lKQAISkIAEJKDIsA9IQAISkIAEJJALAUVGLljNVAISkIAEJCABRYZ9QAISkIAEJCCBXAgoMnLBaqYSkIAEJCABCSgy7AMSkIAEJCABCeRCQJGRC1YzlYAEJCABCUhAkWEfkIAEJCABCUggFwKKjFywmqkEJCABCUhAAooM+4AEJCABCUhAArkQUGTkgtVMJSABCUhAAhJQZNgHJCABCUhAAhLIhYAiIxesZioBCUhAAhKQgCLDPiABCUhAAhKQQC4EFBm5YDVTCUhAAhKQgAT+P1i3IEQg8HkZAAAAAElFTkSuQmCC;" vertex="1" parent="9PYEujNsPARz0ICmjyJu-1">
          <mxGeometry x="-820" y="-1450" width="537" height="399" as="geometry" />
        </mxCell>
      </root>
    </mxGraphModel>
  </diagram>
  <diagram id="p3INmgq6waD5H1cD_A1d" name="UserStory">
    <mxGraphModel dx="1210" dy="647" grid="1" gridSize="10" guides="1" tooltips="1" connect="1" arrows="1" fold="1" page="1" pageScale="1" pageWidth="850" pageHeight="1100" math="0" shadow="0">
      <root>
        <mxCell id="J3Drg7Q4zY4Df5hZgGtG-0" />
        <mxCell id="J3Drg7Q4zY4Df5hZgGtG-1" parent="J3Drg7Q4zY4Df5hZgGtG-0" />
        <mxCell id="J3Drg7Q4zY4Df5hZgGtG-3" value="" style="edgeStyle=orthogonalEdgeStyle;rounded=0;orthogonalLoop=1;jettySize=auto;html=1;fontSize=13;" parent="J3Drg7Q4zY4Df5hZgGtG-1" source="J3Drg7Q4zY4Df5hZgGtG-4" target="J3Drg7Q4zY4Df5hZgGtG-22" edge="1">
          <mxGeometry relative="1" as="geometry" />
        </mxCell>
        <mxCell id="J3Drg7Q4zY4Df5hZgGtG-4" value="Detailed Info" style="rounded=1;fillColor=#23445D;gradientColor=none;strokeColor=none;fontColor=#FFFFFF;fontStyle=1;fontFamily=Tahoma;fontSize=14" parent="J3Drg7Q4zY4Df5hZgGtG-1" vertex="1">
          <mxGeometry x="889.9999999999998" y="335.5" width="190" height="80" as="geometry" />
        </mxCell>
        <mxCell id="J3Drg7Q4zY4Df5hZgGtG-5" value="" style="edgeStyle=orthogonalEdgeStyle;rounded=0;orthogonalLoop=1;jettySize=auto;html=1;fontSize=13;" parent="J3Drg7Q4zY4Df5hZgGtG-1" source="J3Drg7Q4zY4Df5hZgGtG-6" target="J3Drg7Q4zY4Df5hZgGtG-19" edge="1">
          <mxGeometry relative="1" as="geometry" />
        </mxCell>
        <mxCell id="J3Drg7Q4zY4Df5hZgGtG-6" value="Add Service" style="rounded=1;fillColor=#23445D;gradientColor=none;strokeColor=none;fontColor=#FFFFFF;fontStyle=1;fontFamily=Tahoma;fontSize=14" parent="J3Drg7Q4zY4Df5hZgGtG-1" vertex="1">
          <mxGeometry x="687" y="335.5" width="190" height="80" as="geometry" />
        </mxCell>
        <mxCell id="J3Drg7Q4zY4Df5hZgGtG-7" value="" style="edgeStyle=orthogonalEdgeStyle;rounded=0;orthogonalLoop=1;jettySize=auto;html=1;fontSize=13;" parent="J3Drg7Q4zY4Df5hZgGtG-1" source="J3Drg7Q4zY4Df5hZgGtG-8" target="J3Drg7Q4zY4Df5hZgGtG-15" edge="1">
          <mxGeometry relative="1" as="geometry" />
        </mxCell>
        <mxCell id="J3Drg7Q4zY4Df5hZgGtG-8" value="Search" style="rounded=1;fillColor=#23445D;gradientColor=none;strokeColor=none;fontColor=#FFFFFF;fontStyle=1;fontFamily=Tahoma;fontSize=14" parent="J3Drg7Q4zY4Df5hZgGtG-1" vertex="1">
          <mxGeometry x="479.9999999999999" y="335.5" width="190" height="80" as="geometry" />
        </mxCell>
        <mxCell id="J3Drg7Q4zY4Df5hZgGtG-9" value="List of Services" style="rounded=1;fillColor=#23445D;gradientColor=none;strokeColor=none;fontColor=#FFFFFF;fontStyle=1;fontFamily=Tahoma;fontSize=14" parent="J3Drg7Q4zY4Df5hZgGtG-1" vertex="1">
          <mxGeometry x="270" y="335.5" width="190" height="80" as="geometry" />
        </mxCell>
        <mxCell id="J3Drg7Q4zY4Df5hZgGtG-10" value="" style="edgeStyle=orthogonalEdgeStyle;rounded=0;orthogonalLoop=1;jettySize=auto;html=1;fontSize=13;" parent="J3Drg7Q4zY4Df5hZgGtG-1" source="J3Drg7Q4zY4Df5hZgGtG-11" target="J3Drg7Q4zY4Df5hZgGtG-13" edge="1">
          <mxGeometry relative="1" as="geometry" />
        </mxCell>
        <mxCell id="J3Drg7Q4zY4Df5hZgGtG-11" value="Manipulation&#xa;with table" style="rounded=1;fillColor=#23445D;gradientColor=none;strokeColor=none;fontColor=#FFFFFF;fontStyle=1;fontFamily=Tahoma;fontSize=14" parent="J3Drg7Q4zY4Df5hZgGtG-1" vertex="1">
          <mxGeometry x="300" y="440" width="130" height="60" as="geometry" />
        </mxCell>
        <mxCell id="J3Drg7Q4zY4Df5hZgGtG-12" style="edgeStyle=orthogonalEdgeStyle;rounded=0;orthogonalLoop=1;jettySize=auto;html=1;entryX=0.5;entryY=0;entryDx=0;entryDy=0;fontSize=13;" parent="J3Drg7Q4zY4Df5hZgGtG-1" source="J3Drg7Q4zY4Df5hZgGtG-13" target="J3Drg7Q4zY4Df5hZgGtG-17" edge="1">
          <mxGeometry relative="1" as="geometry" />
        </mxCell>
        <mxCell id="J3Drg7Q4zY4Df5hZgGtG-13" value="Sort&#xa;Refresh Data" style="rounded=1;fillColor=#23445D;gradientColor=none;strokeColor=none;fontColor=#FFFFFF;fontStyle=1;fontFamily=Tahoma;fontSize=14" parent="J3Drg7Q4zY4Df5hZgGtG-1" vertex="1">
          <mxGeometry x="300" y="520" width="130" height="60" as="geometry" />
        </mxCell>
        <mxCell id="J3Drg7Q4zY4Df5hZgGtG-14" value="" style="edgeStyle=orthogonalEdgeStyle;rounded=0;orthogonalLoop=1;jettySize=auto;html=1;fontSize=13;" parent="J3Drg7Q4zY4Df5hZgGtG-1" source="J3Drg7Q4zY4Df5hZgGtG-15" target="J3Drg7Q4zY4Df5hZgGtG-16" edge="1">
          <mxGeometry relative="1" as="geometry" />
        </mxCell>
        <mxCell id="J3Drg7Q4zY4Df5hZgGtG-15" value="Filters " style="rounded=1;fillColor=#23445D;gradientColor=none;strokeColor=none;fontColor=#FFFFFF;fontStyle=1;fontFamily=Tahoma;fontSize=14" parent="J3Drg7Q4zY4Df5hZgGtG-1" vertex="1">
          <mxGeometry x="510" y="440" width="130" height="60" as="geometry" />
        </mxCell>
        <mxCell id="J3Drg7Q4zY4Df5hZgGtG-16" value="Filtering by all&#xa;fields &amp; categories" style="rounded=1;fillColor=#23445D;gradientColor=none;strokeColor=none;fontColor=#FFFFFF;fontStyle=1;fontFamily=Tahoma;fontSize=13;" parent="J3Drg7Q4zY4Df5hZgGtG-1" vertex="1">
          <mxGeometry x="510" y="520" width="130" height="60" as="geometry" />
        </mxCell>
        <mxCell id="J3Drg7Q4zY4Df5hZgGtG-17" value="Sort By All &#xa;fields" style="rounded=1;fillColor=#23445D;gradientColor=none;strokeColor=none;fontColor=#FFFFFF;fontStyle=1;fontFamily=Tahoma;fontSize=14" parent="J3Drg7Q4zY4Df5hZgGtG-1" vertex="1">
          <mxGeometry x="300" y="600" width="130" height="60" as="geometry" />
        </mxCell>
        <mxCell id="J3Drg7Q4zY4Df5hZgGtG-18" value="" style="edgeStyle=orthogonalEdgeStyle;rounded=0;orthogonalLoop=1;jettySize=auto;html=1;fontSize=13;" parent="J3Drg7Q4zY4Df5hZgGtG-1" source="J3Drg7Q4zY4Df5hZgGtG-19" target="J3Drg7Q4zY4Df5hZgGtG-20" edge="1">
          <mxGeometry relative="1" as="geometry" />
        </mxCell>
        <mxCell id="J3Drg7Q4zY4Df5hZgGtG-19" value="Fill in form" style="rounded=1;fillColor=#23445D;gradientColor=none;strokeColor=none;fontColor=#FFFFFF;fontStyle=1;fontFamily=Tahoma;fontSize=14" parent="J3Drg7Q4zY4Df5hZgGtG-1" vertex="1">
          <mxGeometry x="717" y="440" width="130" height="60" as="geometry" />
        </mxCell>
        <mxCell id="J3Drg7Q4zY4Df5hZgGtG-20" value="Subject&lt;br style=&quot;font-size: 10px;&quot;&gt;Contact info&lt;br style=&quot;font-size: 10px;&quot;&gt;Description&lt;br style=&quot;font-size: 10px;&quot;&gt;Price&lt;br style=&quot;font-size: 10px;&quot;&gt;Dates" style="rounded=1;fillColor=#23445D;gradientColor=none;strokeColor=none;fontColor=#FFFFFF;fontStyle=1;fontFamily=Tahoma;fontSize=10;html=1;" parent="J3Drg7Q4zY4Df5hZgGtG-1" vertex="1">
          <mxGeometry x="717" y="520" width="130" height="60" as="geometry" />
        </mxCell>
        <mxCell id="J3Drg7Q4zY4Df5hZgGtG-21" value="" style="edgeStyle=orthogonalEdgeStyle;rounded=0;orthogonalLoop=1;jettySize=auto;html=1;fontSize=13;" parent="J3Drg7Q4zY4Df5hZgGtG-1" source="J3Drg7Q4zY4Df5hZgGtG-22" target="J3Drg7Q4zY4Df5hZgGtG-23" edge="1">
          <mxGeometry relative="1" as="geometry" />
        </mxCell>
        <mxCell id="J3Drg7Q4zY4Df5hZgGtG-22" value="Contact Info" style="rounded=1;fillColor=#23445D;gradientColor=none;strokeColor=none;fontColor=#FFFFFF;fontStyle=1;fontFamily=Tahoma;fontSize=14" parent="J3Drg7Q4zY4Df5hZgGtG-1" vertex="1">
          <mxGeometry x="920" y="440.00000000000006" width="130" height="60" as="geometry" />
        </mxCell>
        <mxCell id="J3Drg7Q4zY4Df5hZgGtG-23" value="Print Contact Info" style="rounded=1;fillColor=#23445D;gradientColor=none;strokeColor=none;fontColor=#FFFFFF;fontStyle=1;fontFamily=Tahoma;fontSize=14;whiteSpace=wrap;" parent="J3Drg7Q4zY4Df5hZgGtG-1" vertex="1">
          <mxGeometry x="920" y="520" width="130" height="60" as="geometry" />
        </mxCell>
        <mxCell id="J3Drg7Q4zY4Df5hZgGtG-24" value="" style="edgeStyle=orthogonalEdgeStyle;rounded=0;orthogonalLoop=1;jettySize=auto;html=1;fontSize=13;" parent="J3Drg7Q4zY4Df5hZgGtG-1" source="J3Drg7Q4zY4Df5hZgGtG-25" target="J3Drg7Q4zY4Df5hZgGtG-27" edge="1">
          <mxGeometry relative="1" as="geometry" />
        </mxCell>
        <mxCell id="J3Drg7Q4zY4Df5hZgGtG-25" value="Home Page" style="rounded=1;fillColor=#23445D;gradientColor=none;strokeColor=none;fontColor=#FFFFFF;fontStyle=1;fontFamily=Tahoma;fontSize=14" parent="J3Drg7Q4zY4Df5hZgGtG-1" vertex="1">
          <mxGeometry x="60" y="335.5" width="190" height="80" as="geometry" />
        </mxCell>
        <mxCell id="J3Drg7Q4zY4Df5hZgGtG-26" value="" style="edgeStyle=orthogonalEdgeStyle;rounded=0;orthogonalLoop=1;jettySize=auto;html=1;fontSize=13;" parent="J3Drg7Q4zY4Df5hZgGtG-1" source="J3Drg7Q4zY4Df5hZgGtG-27" target="J3Drg7Q4zY4Df5hZgGtG-28" edge="1">
          <mxGeometry relative="1" as="geometry" />
        </mxCell>
        <mxCell id="J3Drg7Q4zY4Df5hZgGtG-27" value="Menu Buttons" style="rounded=1;fillColor=#23445D;gradientColor=none;strokeColor=none;fontColor=#FFFFFF;fontStyle=1;fontFamily=Tahoma;fontSize=14" parent="J3Drg7Q4zY4Df5hZgGtG-1" vertex="1">
          <mxGeometry x="90" y="440" width="130" height="60" as="geometry" />
        </mxCell>
        <mxCell id="J3Drg7Q4zY4Df5hZgGtG-28" value="See services&#xa;Add service" style="rounded=1;fillColor=#23445D;gradientColor=none;strokeColor=none;fontColor=#FFFFFF;fontStyle=1;fontFamily=Tahoma;fontSize=14" parent="J3Drg7Q4zY4Df5hZgGtG-1" vertex="1">
          <mxGeometry x="90" y="520" width="130" height="60" as="geometry" />
        </mxCell>
        <mxCell id="J3Drg7Q4zY4Df5hZgGtG-29" value="" style="endArrow=classic;html=1;fontSize=13;entryX=0.5;entryY=0;entryDx=0;entryDy=0;" parent="J3Drg7Q4zY4Df5hZgGtG-1" source="J3Drg7Q4zY4Df5hZgGtG-9" target="J3Drg7Q4zY4Df5hZgGtG-11" edge="1">
          <mxGeometry width="50" height="50" relative="1" as="geometry">
            <mxPoint x="320" y="480" as="sourcePoint" />
            <mxPoint x="370" y="430" as="targetPoint" />
          </mxGeometry>
        </mxCell>
        <mxCell id="J3Drg7Q4zY4Df5hZgGtG-30" value="User Story" style="text;html=1;resizable=0;autosize=1;align=center;verticalAlign=middle;points=[];fillColor=none;strokeColor=none;rounded=0;fontSize=45;fontStyle=5;fontFamily=Tahoma;fontColor=#023E66;labelBackgroundColor=#ffffff;" parent="J3Drg7Q4zY4Df5hZgGtG-1" vertex="1">
          <mxGeometry x="442" y="230" width="250" height="60" as="geometry" />
        </mxCell>
      </root>
    </mxGraphModel>
  </diagram>
</mxfile>
